<svg id="play" xmlns="http://www.w3.org/2000/svg" xmlns:xlink="http://www.w3.org/1999/xlink" width="85" height="85" viewBox="0 0 85 85">
  <defs>
    <linearGradient id="linear-gradient" x1="0.146" y1="0.854" x2="0.854" y2="0.146" gradientUnits="objectBoundingBox">
      <stop offset="0" stop-color="#0066b3"/>
      <stop offset="1" stop-color="#0087ee"/>
    </linearGradient>
    <radialGradient id="radial-gradient" cx="0.5" cy="0.5" r="0.5" gradientUnits="objectBoundingBox">
      <stop offset="0" stop-color="#2e9aed"/>
      <stop offset="1" stop-color="#fff" stop-opacity="0"/>
    </radialGradient>
  </defs>
  <circle id="Ellipse_2" data-name="Ellipse 2" cx="42.5" cy="42.5" r="42.5" fill="url(#linear-gradient)"/>
  <circle id="Ellipse_3" data-name="Ellipse 3" cx="42.5" cy="42.5" r="42.5" fill="url(#radial-gradient)"/>
  <g id="Group_1760" data-name="Group 1760" transform="translate(13.8 27.639)">
    <path id="Union_77" data-name="Union 77" d="M32.369,27.154c-2.18.008-4.365.008-6.543,0a14.512,14.512,0,0,1-9.979,3.8C7.586,30.82.041,23.832,0,15.518.041,7.2,7.586.221,15.848.08Q25.363-.028,34.865.014c2.49.021,4.98.039,7.479.066C50.607.221,58.152,7.2,58.193,15.518A14.016,14.016,0,0,1,57.057,21a16.682,16.682,0,0,1-14.713,9.951l-.205,0A14.508,14.508,0,0,1,32.369,27.154Z" transform="translate(0 -0.001)" fill="none" stroke="#fff" stroke-width="2"/>
    <path id="Union_78" data-name="Union 78" d="M4.574,11.576a.678.678,0,0,1-.658-.648C3.9,9.859,3.891,8.793,3.883,7.717c-1.072,0-2.152,0-3.227-.006a.644.644,0,0,1-.65-.637C0,6.219,0,5.363.006,4.514a.645.645,0,0,1,.65-.643c1.074,0,2.154,0,3.227-.006C3.891,2.8,3.9,1.723,3.916.654A.665.665,0,0,1,4.574.014C5.436.006,6.3,0,7.152,0a.631.631,0,0,1,.639.637c-.016,1.076-.021,2.15-.027,3.223H11a.645.645,0,0,1,.645.645c-.008.861-.008,1.725,0,2.578A.65.65,0,0,1,11,7.73c-1.08-.006-2.154-.006-3.234-.006.006,1.072.012,2.148.027,3.223a.636.636,0,0,1-.639.643C6.3,11.584,5.436,11.576,4.574,11.576Z" transform="translate(9.698 9.726)" fill="none" stroke="#fff" stroke-width="2"/>
    <path id="Path_11" data-name="Path 11" d="M341,199.329a1.9,1.9,0,0,1-1.912,1.923,1.964,1.964,0,0,1-1.955-1.938,1.891,1.891,0,0,1,1.9-1.925A1.985,1.985,0,0,1,341,199.329Z" transform="translate(-297.798 -189.265)" fill="none" stroke="#fff" stroke-width="2"/>
    <path id="Path_12" data-name="Path 12" d="M308.633,231.74a1.939,1.939,0,1,1-1.947-1.937A1.935,1.935,0,0,1,308.633,231.74Z" transform="translate(-269.507 -217.589)" fill="none" stroke="#fff" stroke-width="2"/>
    <path id="Path_14" data-name="Path 14" d="M395.59,253.46a1.957,1.957,0,0,1-1.957,1.922,1.905,1.905,0,0,1-1.922-1.917,1.939,1.939,0,0,1,3.879-.006Z" transform="translate(-345.493 -236.588)" fill="none" stroke="#fff" stroke-width="2"/>
    <path id="Path_15" data-name="Path 15" d="M362.674,285.848a1.994,1.994,0,0,1-1.972,1.937,1.878,1.878,0,0,1-1.9-1.919,1.97,1.97,0,0,1,1.96-1.936A1.885,1.885,0,0,1,362.674,285.848Z" transform="translate(-316.74 -264.888)" fill="none" stroke="#fff" stroke-width="2"/>
  </g>
</svg>
