<?xml version="1.0" encoding="UTF-8"?>
<svg width="220px" height="180px" viewBox="0 0 220 180" version="1.1" xmlns="http://www.w3.org/2000/svg" xmlns:xlink="http://www.w3.org/1999/xlink">
    <!-- Generator: Sketch 49.3 (51167) - http://www.bohemiancoding.com/sketch -->
    <title>Board</title>
    <desc>Created with Sketch.</desc>
    <defs></defs>
    <g id="Board" stroke="none" stroke-width="1" fill="none" fill-rule="evenodd">
        <path d="M11,141.222838 L11,96.1371308 C11,56.2968936 55.2185497,24 110,24 C164.78145,24 209,56.2968936 209,96.1371308 L209,141.222838 C209,181.151555 144.387103,179.996545 110,179.996545 C75.6128973,179.996545 11,181.151555 11,141.222838 Z" id="Shadow" fill="#F8DDB2"></path>
        <path d="M0,80 C0,35.81722 49.1317219,2.71062335e-15 110,0 C170.868278,0 220,35.81722 220,80 L220,130 C220,174.280904 148.207892,173 110,173 C71.7921082,173 0,174.280904 0,130 L0,80 Z" fill="#FFFFFF"></path>
        <path d="M153.467212,171.864758 C137.841062,173.130738 122.206615,173 110,173 C97.793385,173 82.1589377,173.130738 66.5327879,171.864758 L60,149 L160,149 L153.467212,171.864758 Z" id="Rim-Shadow" fill="#F8F1E5"></path>
        <path d="M62.5,77.5 L62.5,146.5 L157.5,146.5 L157.5,77.5 L62.5,77.5 Z M162.5,72.5 L162.5,151.5 L57.5,151.5 L57.5,72.5 L162.5,72.5 Z" id="Outline-Grey" fill="#DADADA" fill-rule="nonzero"></path>
        <path d="M6,130 L6,80 C6,39.5876651 52.1491217,6 110,6 C167.850878,6 214,39.5876651 214,80 L214,130 C214,151.820332 192.654318,162.687418 152.872059,165.893292 C141.357679,166.821185 131.770905,167.018182 113.212801,167.001918 C111.534021,167.000447 110.869212,167 110,167 C109.130788,167 108.465979,167.000447 106.787199,167.001918 C88.2290951,167.018182 78.6423208,166.821185 67.1279407,165.893292 C27.3456825,162.687418 6,151.820332 6,130 Z M10,130 C10,140.069255 14.9425121,147.025981 25.3637663,152.331441 C35.2844279,157.38205 49.4499288,160.455733 67.4492413,161.906217 C78.8217958,162.822681 88.3313304,163.018091 106.783694,163.001919 C108.463686,163.000447 109.1292,163 110,163 C110.8708,163 111.536314,163.000447 113.216306,163.001919 C131.66867,163.018091 141.178204,162.822681 152.550759,161.906217 C170.550071,160.455733 184.715572,157.38205 194.636234,152.331441 C205.057488,147.025981 210,140.069255 210,130 L210,80 C210,42.1208941 165.866207,10 110,10 C54.1337928,10 10,42.1208941 10,80 L10,130 Z" id="Outline-Red" fill="#FF5B18"></path>
    </g>
</svg>