<svg xmlns="http://www.w3.org/2000/svg" width="220" height="180" viewBox="0 0 220 180">
    <g fill="none" fill-rule="evenodd">
        <path fill="#1B0037" d="M11 141.223V96.137C11 56.297 55.219 24 110 24s99 32.297 99 72.137v45.086c0 39.929-64.613 38.774-99 38.774s-99 1.155-99-38.774z"/>
        <path fill="#F3B12C" d="M0 80C0 35.817 49.132 0 110 0s110 35.817 110 80v50c0 44.28-71.792 43-110 43S0 174.28 0 130V80z"/>
        <path fill="#E39B08" d="M153.467 171.865C137.841 173.13 122.207 173 110 173c-12.207 0-27.841.13-43.467-1.135L60 149h100l-6.533 22.865z"/>
        <path fill="#F8D262" d="M161.315 9.2L13.663 156.852c-6.954-5.154-11.746-11.951-13.2-20.914L134.428 1.974c9.49 1.56 18.51 4.012 26.887 7.226zM122.44.504L0 122.944v-9.625L113.284.035c3.086.065 6.14.223 9.156.47z"/>
        <path fill="#E18B1B" fill-rule="nonzero" d="M62.5 77.5v69h95v-69h-95zm100-5v79h-105v-79h105z"/>
        <path fill="#E18B1B" d="M6 130V80C6 39.588 52.15 6 110 6s104 33.588 104 74v50c0 21.82-21.346 32.687-61.128 35.893-11.514.928-21.101 1.125-39.66 1.109a3359.133 3359.133 0 0 0-6.425 0c-18.558.016-28.145-.18-39.66-1.109C27.347 162.687 6 151.82 6 130zm4 0c0 10.07 4.943 17.026 15.364 22.331 9.92 5.051 24.086 8.125 42.085 9.575 11.373.917 20.882 1.112 39.335 1.096a3361.75 3361.75 0 0 1 6.432 0c18.453.016 27.962-.18 39.335-1.096 18-1.45 32.165-4.524 42.085-9.575C205.057 147.026 210 140.07 210 130V80c0-37.88-44.134-70-100-70S10 42.12 10 80v50z"/>
    </g>
</svg>
