<?xml version="1.0" encoding="utf-8"?>
<!-- Generator: Adobe Illustrator 22.1.0, SVG Export Plug-In . SVG Version: 6.00 Build 0)  -->
<svg version="1.1" id="Layer_1" xmlns="http://www.w3.org/2000/svg" xmlns:xlink="http://www.w3.org/1999/xlink" x="0px" y="0px"
	 viewBox="0 0 101 216" width="101" height="216" style="enable-background:new 0 0 101 216;" xml:space="preserve">
<style type="text/css">
	.st0{fill:#39096B;}
</style>
<path class="st0" d="M101,216.2c0.3-0.7,0-100.4,0-101.1H83c0,0.7-0.1,1.4-0.4,2c-1,2.4-3.8,4.6-7.9,6.3c-3.1,1.3-7,2.4-11.3,3.1
	h-0.1c-0.3,0-0.5,0.1-0.8,0.1c-0.2,0-0.4,0.1-0.6,0.1c0,0-0.1,0-0.2,0c-3.5,0.5-7.3,0.8-11.3,0.8s-7.8-0.3-11.3-0.8c0,0-0.1,0-0.2,0
	c-0.2,0-0.4-0.1-0.6-0.1c-0.3,0-0.6-0.1-0.8-0.1h-0.1c-4.3-0.7-8.2-1.8-11.3-3.1c-4.1-1.7-6.9-3.9-7.9-6.3c-0.1,0-0.1-0.1-0.1-0.1
	l-0.1-0.2l-0.5-1.7H0v101.1"/>
</svg>
