<?xml version="1.0" encoding="utf-8"?>
<!-- Generator: Adobe Illustrator 22.1.0, SVG Export Plug-In . SVG Version: 6.00 Build 0)  -->
<svg version="1.1" id="Layer_1" xmlns="http://www.w3.org/2000/svg" xmlns:xlink="http://www.w3.org/1999/xlink" x="0px" y="0px"
	 viewBox="0 0 101 184" style="enable-background:new 0 0 101 184;" width="101" height="184" xml:space="preserve">
<style type="text/css">
	.st0{fill:#F8D262;}
	.st1{fill:#E18B1B;}
	.st2{fill:#F3B12C;}
	.st3{fill:#E8A419;}
	.st4{fill:#FCE5A2;}
</style>
<path class="st0" d="M100.6,116.6c0.2-0.7,0.3-1.3,0.3-2c0-2.3-1.1-4.6-3-6.6c0,0,0,0,0.1,0.1c0,0,0,0,0,0c0,0,0,0,0,0
	c-0.1-0.1-0.1-0.1-0.2-0.2c-0.1-0.1-0.2-0.3-0.4-0.4c-0.1-0.1-0.1-0.1-0.2-0.2c-0.2-0.2-0.4-0.4-0.6-0.5c-0.1-0.1-0.2-0.1-0.2-0.2
	c-0.7-0.6-1.5-1.2-2.3-1.7c-0.1,0-0.1-0.1-0.2-0.1c-0.3-0.2-0.5-0.3-0.8-0.5c-0.1-0.1-0.2-0.1-0.4-0.2c-0.3-0.2-0.5-0.3-0.8-0.5
	c-0.1-0.1-0.2-0.1-0.4-0.2c-0.9-0.5-1.9-1-2.9-1.4c-0.2-0.1-0.3-0.1-0.5-0.2c-0.3-0.1-0.6-0.2-0.9-0.4c-0.2-0.1-0.4-0.2-0.6-0.2
	c0,0,0,0,0,0c-0.1,0-0.2-0.1-0.3-0.1c0.5-0.7,1-1.4,1.4-2.2C95.5,84.4,99.3,72.2,99.3,62c0-6.4-0.8-12.5-2.2-18.3
	c0.3,1.1,0.6,2.1,0.9,3.2C92.9,20,73.6,0,50.6,0C27.1,0,7.6,20.7,2.9,48.4c0.3-1.1-1,7.8-1,13.6c0,10.2,3.8,22.4,11.5,36.7
	c0.4,0.7,0.9,1.5,1.3,2.1c-0.1,0.1-0.3,0.1-0.4,0.2c0,0,0,0,0,0c-0.2,0.1-0.4,0.2-0.6,0.2c-0.3,0.1-0.6,0.2-0.9,0.4
	c-0.2,0.1-0.3,0.1-0.5,0.2c-1,0.5-2,0.9-2.9,1.4c-0.1,0.1-0.3,0.1-0.4,0.2c-0.3,0.2-0.5,0.3-0.8,0.5c-0.1,0.1-0.2,0.1-0.4,0.2
	c-0.3,0.2-0.5,0.3-0.8,0.5c-0.1,0-0.1,0.1-0.2,0.1c-0.8,0.6-1.6,1.1-2.3,1.7c-0.1,0.1-0.2,0.1-0.2,0.2c-0.2,0.2-0.4,0.4-0.6,0.5
	c-0.1,0.1-0.1,0.1-0.2,0.2c-0.1,0.1-0.1,0.1-0.2,0.2c-0.1,0.1-0.2,0.2-0.3,0.3c0,0,0,0,0,0c0,0,0,0,0,0c0,0,0,0,0.1-0.1
	c-1.9,2.1-3,4.3-3,6.6c0,0.7,0.1,1.3,0.3,2c0,0,0,0,0,0c-0.1,0.3-0.1,0.5-0.2,0.8c0,0-0.1,0-0.1,0c0,0.1,0,0.2,0.1,0.3
	c0,0.3-0.1,0.6-0.1,0.9c0,1.3,0.3,2.6,1,3.9c0.1,0.4,0.2,0.7,0.3,1c0,0,0,0,0,0c0.1,0.3,0.2,0.5,0.2,0.8c0.1,0.4,0.2,0.8,0.3,1.2
	c0.1,0.4,0.3,0.8,0.4,1.2c0.1,0.4,0.2,0.7,0.4,1.1c0.1,0.4,0.3,0.8,0.4,1.1c0.1,0.3,0.3,0.7,0.4,1c0.2,0.4,0.3,0.7,0.5,1
	c0.1,0.3,0.3,0.6,0.4,0.9c0.2,0.3,0.3,0.6,0.5,0.9c0.2,0.3,0.3,0.6,0.5,0.9c0.2,0.3,0.4,0.6,0.5,0.9c0.2,0.3,0.3,0.5,0.5,0.8
	c0.2,0.3,0.4,0.5,0.6,0.8c0.2,0.3,0.4,0.5,0.5,0.7c0.2,0.2,0.4,0.5,0.6,0.7c0.2,0.2,0.4,0.5,0.6,0.7c0.2,0.2,0.4,0.4,0.6,0.7
	c0.2,0.2,0.4,0.5,0.6,0.7c0.2,0.2,0.4,0.4,0.5,0.6c0.2,0.2,0.4,0.5,0.6,0.7c0,0,0,0,0.1,0.1c0.1,0.1,0.3,0.3,0.4,0.4c0,0,0,0,0,0
	c0.2,0.2,0.5,0.5,0.7,0.7l0,0c0.1,0.1,0.3,0.2,0.4,0.4c0,0,0,0,0,0c0.3,0.3,0.6,0.5,0.8,0.8c0,0,0,0,0,0c0,0,0,0,0,0c0,0,0,0,0,0
	c1.6,1.5,3.1,2.8,4.6,4.2c0.1,0.1,0.2,0.2,0.3,0.3c0.2,0.2,0.4,0.4,0.6,0.6c0.2,0.2,0.4,0.4,0.5,0.5c0.1,0.1,0.2,0.2,0.3,0.3
	c0.2,0.3,0.5,0.5,0.7,0.8c0.1,0.1,0.2,0.2,0.3,0.3c0.2,0.3,0.5,0.6,0.7,0.9c0.1,0.1,0.1,0.2,0.2,0.3c0.2,0.3,0.5,0.6,0.7,0.9
	c0.1,0.1,0.1,0.2,0.2,0.2c0.2,0.3,0.5,0.7,0.7,1c0,0.1,0.1,0.1,0.1,0.2c0.2,0.4,0.5,0.8,0.7,1.1c0,0,0.1,0.1,0.1,0.1
	c0.2,0.4,0.4,0.8,0.7,1.2c0,0,0,0.1,0,0.1c0.2,0.4,0.4,0.9,0.6,1.4c0,0.1,0,0.1,0.1,0.2c0.2,0.5,0.4,0.9,0.5,1.4
	c0,0.1,0.1,0.2,0.1,0.2c0.1,0.2,0.2,0.5,0.2,0.8c0.1,0.3,0.2,0.5,0.2,0.8c0,0.1,0,0.2,0.1,0.3c0.1,0.5,0.3,1.1,0.4,1.6
	c0,0.1,0,0.2,0.1,0.3c0.1,0.6,0.2,1.2,0.3,1.8c0,0.1,0,0.2,0,0.3c0.1,0.6,0.2,1.3,0.2,2c0,0.1,0,0.1,0,0.2c0.1,0.7,0.1,1.5,0.2,2.3
	c0.3,0.2,0.7,0.4,1,0.6c0.1,0.1,0.2,0.1,0.4,0.2c0.2,0.1,0.5,0.3,0.7,0.4c0.1,0.1,0.3,0.2,0.5,0.2c0.2,0.1,0.4,0.2,0.7,0.3
	c0.2,0.1,0.3,0.2,0.5,0.2c0.2,0.1,0.4,0.2,0.7,0.3c0.2,0.1,0.4,0.1,0.6,0.2c0.2,0.1,0.4,0.2,0.7,0.2c0.2,0.1,0.4,0.1,0.6,0.2
	c0.2,0.1,0.4,0.1,0.7,0.2c0.2,0.1,0.4,0.1,0.7,0.2c0.2,0.1,0.4,0.1,0.7,0.2c0.2,0.1,0.5,0.1,0.7,0.2c0.2,0.1,0.4,0.1,0.7,0.2
	c0.2,0.1,0.5,0.1,0.7,0.2c0.2,0,0.4,0.1,0.6,0.1c0.3,0.1,0.5,0.1,0.8,0.2c0.2,0,0.4,0.1,0.6,0.1c0.3,0,0.5,0.1,0.8,0.1
	c0.2,0,0.4,0.1,0.6,0.1c0.3,0,0.6,0.1,0.9,0.1c0.2,0,0.3,0,0.5,0.1c0.3,0,0.7,0.1,1,0.1c0.1,0,0.2,0,0.3,0c0.6,0.1,1.3,0.1,2,0.2
	c0,0,0,0,0,0c0.5,0,0.9,0,1.4,0.1c0,0,0,0-0.1,0c0.2,0,0.4,0,0.7,0c0,0,0,0,0,0c0.1,0,0.1,0,0.2,0c0,0,0,0,0,0c0,0,0,0,0,0
	 M48.4,175.3c9,0.3,18.2-1.5,23.9-5.3c0.2-3.8,0.7-7,1.5-9.6c4.8-15.8,19.2-15.4,25-36.2c1.3-1.8,2.1-3.6,2.1-5.6
	c0-0.7-0.1-1.3-0.3-2"/>
<title>Toilet</title>
<path class="st1" d="M24.2,155.2l-0.1-0.1L24.2,155.2z"/>
<path class="st1" d="M23.5,153.9l-0.1-0.2L23.5,153.9z"/>
<path class="st1" d="M24.9,156.6L24.9,156.6L24.9,156.6z"/>
<path class="st1" d="M22.6,152.7l-0.2-0.2L22.6,152.7z"/>
<path class="st1" d="M21.7,151.5l-0.2-0.3L21.7,151.5z"/>
<path class="st1" d="M20.8,150.4l-0.3-0.3L20.8,150.4z"/>
<path class="st1" d="M18.3,147.9l0.6,0.6L18.3,147.9z"/>
<path class="st1" d="M19.8,149.3l-0.3-0.3L19.8,149.3z"/>
<path class="st1" d="M26.2,159.8l-0.1-0.2L26.2,159.8z"/>
<path class="st1" d="M98.7,124.2c1.3-1.6,2-3.5,2.1-5.6c0-0.7-0.1-1.3-0.3-2c-2.6,9.9-24,17.6-50.1,17.6s-47.6-7.7-50.1-17.6
	c-0.1,0.3-0.1,0.5-0.2,0.8H0l0.1,0.3c0,0.3-0.1,0.6-0.1,0.9c0,1.4,0.4,2.7,1,3.9c3.4,14.4,10.8,19.2,17,25.1
	c-6-5.7-13.2-10.5-16.8-24.1h0.3c5.6,8.5,25.3,14.8,48.8,14.8c13,0,24.9-1.9,33.9-5.1c-10.8,18.1-31.3,18-35.9,42.2
	c-1.4,0-2.8-0.1-4.1-0.3c10.2,1,21.5-0.7,28-5.1c0.1-3.3,0.6-6.5,1.5-9.6C78.6,144.6,93,145,98.7,124.2z"/>
<path class="st1" d="M25.6,158.1l-0.1-0.2L25.6,158.1z"/>
<path class="st1" d="M38.1,174.1l-0.7-0.2L38.1,174.1z"/>
<path class="st1" d="M30.4,171.5l-0.5-0.2L30.4,171.5z"/>
<path class="st1" d="M34.1,173l-0.6-0.2L34.1,173z"/>
<path class="st1" d="M36.8,173.8l-0.7-0.2L36.8,173.8z"/>
<path class="st1" d="M32.8,172.5l-0.6-0.2L32.8,172.5z"/>
<path class="st1" d="M35.4,173.4l-0.7-0.2L35.4,173.4z"/>
<path class="st1" d="M44,175.1l-1-0.1L44,175.1z"/>
<path class="st1" d="M42.5,174.9l-0.9-0.1L42.5,174.9z"/>
<path class="st1" d="M39.5,174.4l-0.8-0.2L39.5,174.4z"/>
<path class="st1" d="M41,174.7l-0.8-0.1L41,174.7z"/>
<path class="st1" d="M31.6,172l-0.5-0.2L31.6,172z"/>
<path class="st1" d="M26.7,161.6l-0.1-0.3L26.7,161.6z"/>
<path class="st1" d="M27.5,165.6v-0.3V165.6z"/>
<path class="st1" d="M27.8,167.8v-0.2V167.8z"/>
<path class="st1" d="M27.2,163.5l-0.1-0.3L27.2,163.5z"/>
<path class="st1" d="M29.3,170.9l-0.4-0.2L29.3,170.9z"/>
<path class="st2" d="M26.7,161.6c0.1,0.5,0.3,1.1,0.4,1.6l0.1,0.3c0.1,0.6,0.2,1.2,0.3,1.8v0.3c0.1,0.6,0.2,1.3,0.2,2v0.2
	c0.1,0.7,0.1,1.5,0.1,2.3c0.3,0.2,0.6,0.4,1,0.6l0.4,0.2l0.7,0.4l0.5,0.2l0.7,0.3l0.5,0.2l0.7,0.3l0.6,0.2l0.7,0.2L34,173l0.7,0.2
	l0.7,0.2l0.7,0.2l0.7,0.2l0.7,0.2l0.7,0.2l0.6,0.1l0.8,0.2l0.6,0.1l0.8,0.1l0.6,0.1l0.9,0.1L43,175l1,0.1h0.3
	c1.4,0.1,2.7,0.2,4.1,0.3c4.6-24.2,25.1-24.1,35.9-42.2c-8.9,3.2-20.8,5.1-33.9,5.1c-23.5,0-43.2-6.3-48.8-14.7H1.2
	c3.6,13.5,10.8,18.3,16.8,24l0.3,0.3l0.6,0.6l0.5,0.5l0.3,0.3l0.7,0.8l0.3,0.3c0.2,0.3,0.5,0.6,0.7,0.9l0.2,0.3
	c0.2,0.3,0.5,0.6,0.7,0.9l0.2,0.2c0.2,0.3,0.5,0.7,0.7,1l0.1,0.2c0.2,0.4,0.5,0.8,0.7,1.1l0.1,0.1c0.2,0.4,0.4,0.8,0.6,1.2v0.1
	c0.2,0.4,0.4,0.9,0.6,1.4l0.1,0.2c0.2,0.5,0.4,0.9,0.5,1.4l0.1,0.2c0.1,0.2,0.1,0.5,0.2,0.8s0.1,0.5,0.2,0.8L26.7,161.6z"/>
<path class="st3" d="M71.1,95.6c2.2,0,4.2-1.2,5.2-3.1c6.6-12.3,10-22.5,10-30.5c0-1.8-0.1-3.6-0.2-5.3c-3-21.8-17.8-38.4-35.5-38.4
	S18,34.9,15,56.7c-0.1,1.8-0.2,3.5-0.2,5.3c0,7.9,3.3,18.2,10,30.5c1,1.9,3,3.1,5.2,3.1h8h0.2l1.8-0.2h0.5l2.2-0.2h0.6l1.7-0.1h0.8
	h1.7L48,95h2.4h2.4h0.7h1.7H56l1.7,0.1h0.6l2.2,0.2H61l1.8,0.2H63L71.1,95.6z"/>
<path class="st1" d="M50.5,18.2C68.2,18.2,83,34.9,86,56.7C85.1,45.4,81.2,35,74.8,27c-6.7-8.4-15.3-13-24.3-13s-17.6,4.6-24.3,13
	C19.8,35,15.9,45.4,15,56.7C18,34.9,32.8,18.2,50.5,18.2z"/>
<path class="st3" d="M50.4,106.1c-16.3,0-29.8,4.5-32.3,10.5c2.5,5.9,16,10.5,32.3,10.5s29.8-4.5,32.3-10.5
	C80.2,110.7,66.7,106.1,50.4,106.1z"/>
<path class="st4" d="M50.5,3.7c21.2,0,39.3,16.6,46.4,40c0.3,1.1,0.6,2.1,0.9,3.2C92.8,20,73.5,0,50.5,0C27,0,7.5,20.8,2.8,48.4
	c0.3-1.1,0.5-2.2,0.8-3.2C10.5,21,28.9,3.7,50.5,3.7z"/>
<path class="st1" d="M50.4,106.1c16.3,0,29.8,4.5,32.3,10.5c0.3-0.6,0.4-1.3,0.4-2c0-6.9-14.7-12.5-32.8-12.5s-32.8,5.6-32.8,12.5
	c0,0.7,0.1,1.4,0.4,2C20.6,110.7,34.1,106.1,50.4,106.1z"/>
<path class="st0" d="M12.7,101.6l0.9-0.4L12.7,101.6z"/>
<path class="st0" d="M91.8,103.4l0.8,0.5L91.8,103.4z"/>
<path class="st0" d="M87.2,101.2l0.9,0.4L87.2,101.2z"/>
<path class="st0" d="M96.5,106.7l0.6,0.5L96.5,106.7z"/>
<path class="st0" d="M93,104.1l0.8,0.5L93,104.1z"/>
<path class="st0" d="M7,104.6l0.8-0.5L7,104.6z"/>
<path class="st0" d="M88.6,101.8c1,0.5,2,0.9,2.9,1.4C90.6,102.7,89.6,102.3,88.6,101.8z"/>
<path class="st0" d="M94,104.8c0.8,0.5,1.6,1.1,2.3,1.8C95.6,105.9,94.8,105.3,94,104.8z"/>
<path class="st0" d="M8.2,103.9l0.8-0.5L8.2,103.9z"/>
<path class="st0" d="M3.7,107.2l0.6-0.5L3.7,107.2z"/>
<path class="st0" d="M4.5,106.5c0.7-0.6,1.5-1.2,2.3-1.8C6,105.3,5.2,105.9,4.5,106.5z"/>
<path class="st0" d="M9.3,103.2c0.9-0.5,1.9-1,2.9-1.4C11.2,102.3,10.2,102.7,9.3,103.2z"/>
<path class="st0" d="M58.2,95.2h-0.6H58.2z"/>
<path class="st0" d="M48,95h-0.7H48z"/>
<path class="st0" d="M55.9,95.1h-0.8H55.9z"/>
<path class="st0" d="M53.5,95h-0.7H53.5z"/>
<path class="st0" d="M61,95.4h-0.5H61z"/>
<path class="st0" d="M40.3,95.4h-0.5H40.3z"/>
<path class="st0" d="M45.7,95.1h-0.8H45.7z"/>
<path class="st0" d="M43.2,95.2h-0.6H43.2z"/>
<path class="st0" d="M38.1,95.6h-0.2h-8c-2.2,0-4.2-1.2-5.2-3.1c-6.6-12.3-10-22.6-10-30.5c0-1.8,0.1-3.6,0.2-5.3
	c1-11.3,4.9-21.7,11.3-29.7c6.7-8.4,15.3-13,24.3-13s17.6,4.6,24.3,13c6.4,8,10.3,18.4,11.2,29.7c0.1,1.8,0.2,3.5,0.2,5.3
	c0,7.9-3.3,18.2-10,30.5c-1,1.9-3,3.1-5.2,3.1h-8.1h-0.2c8.2,0.7,16.2,2.5,23.9,5.4l-0.3-0.1c0.5-0.7,1-1.4,1.4-2.2
	C95.4,84.4,99.2,72.2,99.2,62c0-6.2-0.7-12.3-2.2-18.3c-7.2-23.4-25.2-40-46.4-40C29,3.7,10.6,21,3.7,45.1C2.4,50.7,1.8,56.3,1.8,62
	c0,10.2,3.8,22.4,11.5,36.7c0.4,0.7,0.8,1.5,1.3,2.1l-0.4,0.2C21.9,98.1,29.9,96.3,38.1,95.6z"/>
<path class="st0" d="M50.4,134.2c26.1,0,47.6-7.7,50.1-17.6c0.2-0.7,0.3-1.3,0.3-2c0-2.5-1.2-4.9-3.5-7.2c0.2,0.2,0.4,0.4,0.6,0.6
	c-8.3-7-26.4-11.8-47.5-11.8S11.2,101.1,2.9,108c0.2-0.2,0.4-0.4,0.6-0.6c-2.2,2.2-3.5,4.7-3.5,7.2c0,0.7,0.1,1.3,0.3,2
	C2.8,126.5,24.3,134.2,50.4,134.2z M17.6,114.6c0-6.9,14.7-12.5,32.8-12.5s32.8,5.6,32.8,12.5c0,0.7-0.1,1.4-0.4,2
	c-2.5,5.9-16,10.5-32.3,10.5s-29.8-4.5-32.3-10.5C17.8,116,17.6,115.3,17.6,114.6z"/>
<path class="st4" d="M50.4,96.2c21,0,39.2,4.8,47.5,11.8c-0.2-0.2-0.4-0.4-0.6-0.6l-0.2-0.2l-0.6-0.5l-0.2-0.2
	c-0.7-0.6-1.5-1.2-2.3-1.8l-0.2-0.1l-0.8-0.5l-0.4-0.2l-0.8-0.5l-0.4-0.2c-0.9-0.5-1.9-1-2.9-1.4l-0.5-0.2l-0.9-0.4l-0.6-0.2
	c-7.7-2.9-15.7-4.7-23.9-5.4L61,95.4h-0.5l-2.2-0.2h-0.6l-1.7,0h-0.8h-1.7h-0.7L50.4,95H48h-0.7h-1.7h-0.8l-1.7,0.1h-0.6l-2.2,0.2
	h-0.5L38,95.5c-8.2,0.8-16.2,2.6-23.9,5.6l-0.6,0.2l-0.9,0.4l-0.5,0.2c-1,0.5-2,0.9-2.9,1.4L9,103.5L8.2,104l-0.4,0.2L7,104.7
	l-0.2,0.1c-0.8,0.5-1.6,1.1-2.3,1.8l-0.2,0.2l-0.6,0.5l-0.2,0.2c-0.2,0.2-0.4,0.4-0.6,0.6C11.2,101.1,29.4,96.2,50.4,96.2z"/>
<g>
	<g>
		<g>
			<path class="st1" d="M-224.5,156.2c0,0-0.1-0.1-0.1-0.1C-224.6,156.1-224.6,156.2-224.5,156.2"/>
			<path class="st1" d="M-225.3,154.9c0-0.1-0.1-0.1-0.1-0.2C-225.4,154.8-225.3,154.9-225.3,154.9"/>
			<path class="st1" d="M-223.8,157.6C-223.9,157.5-223.9,157.5-223.8,157.6C-223.9,157.5-223.9,157.5-223.8,157.6"/>
			<path class="st1" d="M-226.1,153.7c-0.1-0.1-0.1-0.2-0.2-0.2C-226.3,153.5-226.2,153.6-226.1,153.7"/>
			<path class="st1" d="M-227,152.5c-0.1-0.1-0.1-0.2-0.2-0.3C-227.2,152.3-227.1,152.4-227,152.5"/>
			<path class="st1" d="M-228,151.4c-0.1-0.1-0.2-0.2-0.3-0.3C-228.2,151.2-228.1,151.3-228,151.4"/>
			<path class="st1" d="M-230.4,148.9c0.2,0.2,0.4,0.4,0.6,0.6C-230,149.3-230.2,149.1-230.4,148.9"/>
			<path class="st1" d="M-229,150.3c-0.1-0.1-0.2-0.2-0.3-0.3C-229.2,150.1-229.1,150.2-229,150.3"/>
			<path class="st1" d="M-222.6,160.8c0-0.1-0.1-0.2-0.1-0.2C-222.6,160.6-222.6,160.7-222.6,160.8"/>
			<path class="st1" d="M-150,125.2c1.4-1.8,2.1-3.6,2.1-5.6c0-0.7-0.1-1.3-0.3-2c-2.6,9.9-24,17.6-50.1,17.6
				c-26.1,0-47.6-7.7-50.1-17.6c-0.1,0.3-0.1,0.5-0.2,0.8c0,0-0.1,0-0.1,0c0,0.1,0,0.2,0.1,0.3c0,0.3-0.1,0.6-0.1,0.9
				c0,1.3,0.3,2.6,1,3.9c3.4,14.4,10.8,19.2,17,25.1c-6-5.7-13.2-10.5-16.8-24.1c0.1,0,0.2,0,0.3,0c5.6,8.5,25.3,14.7,48.8,14.7
				c13,0,24.9-1.9,33.9-5.1c-10.8,18.1-31.3,18-35.9,42.2c-1.4,0-2.8-0.1-4.1-0.3c10.2,1,21.5-0.7,28-5.1c0.2-3.8,0.7-7,1.5-9.6
				C-170.2,145.6-155.8,146-150,125.2"/>
			<path class="st1" d="M-223.2,159.1c0-0.1-0.1-0.1-0.1-0.2C-223.2,159-223.2,159.1-223.2,159.1"/>
			<path class="st1" d="M-210.6,175.1c-0.2-0.1-0.5-0.1-0.7-0.2C-211.1,175-210.9,175.1-210.6,175.1"/>
			<path class="st1" d="M-218.3,172.5c-0.2-0.1-0.3-0.1-0.5-0.2C-218.6,172.3-218.5,172.4-218.3,172.5"/>
			<path class="st1" d="M-214.7,174c-0.2-0.1-0.4-0.1-0.6-0.2C-215.1,173.8-214.9,173.9-214.7,174"/>
			<path class="st1" d="M-212,174.8c-0.2-0.1-0.5-0.1-0.7-0.2C-212.5,174.6-212.2,174.7-212,174.8"/>
			<path class="st1" d="M-215.9,173.5c-0.2-0.1-0.4-0.1-0.6-0.2C-216.3,173.4-216.1,173.4-215.9,173.5"/>
			<path class="st1" d="M-213.4,174.4c-0.2-0.1-0.4-0.1-0.6-0.2C-213.8,174.3-213.6,174.3-213.4,174.4"/>
			<path class="st1" d="M-204.8,176.1c-0.3,0-0.7-0.1-1-0.1C-205.5,176-205.1,176-204.8,176.1"/>
			<path class="st1" d="M-206.3,175.9c-0.3,0-0.6-0.1-0.9-0.1C-206.9,175.8-206.6,175.8-206.3,175.9"/>
			<path class="st1" d="M-209.2,175.4c-0.3-0.1-0.5-0.1-0.8-0.2C-209.7,175.3-209.5,175.4-209.2,175.4"/>
			<path class="st1" d="M-207.8,175.7c-0.3,0-0.5-0.1-0.8-0.1C-208.3,175.6-208,175.6-207.8,175.7"/>
			<path class="st1" d="M-217.2,173c-0.2-0.1-0.3-0.1-0.5-0.2C-217.5,172.9-217.3,172.9-217.2,173"/>
			<path class="st1" d="M-222,162.6c0-0.1,0-0.2-0.1-0.3C-222.1,162.4-222.1,162.5-222,162.6"/>
			<path class="st1" d="M-221.2,166.6c0-0.1,0-0.2,0-0.3C-221.3,166.4-221.3,166.5-221.2,166.6"/>
			<path class="st1" d="M-221,168.8c0-0.1,0-0.1,0-0.2C-221,168.6-221,168.7-221,168.8"/>
			<path class="st1" d="M-221.6,164.5c0-0.1,0-0.2-0.1-0.3C-221.6,164.3-221.6,164.4-221.6,164.5"/>
			<path class="st1" d="M-219.5,171.9c-0.1-0.1-0.2-0.1-0.4-0.2C-219.7,171.7-219.6,171.8-219.5,171.9"/>
			<path class="st2" d="M-222,162.6c0.1,0.5,0.3,1.1,0.4,1.6c0,0.1,0,0.2,0.1,0.3c0.1,0.6,0.2,1.2,0.3,1.8c0,0.1,0,0.2,0,0.3
				c0.1,0.6,0.2,1.3,0.2,2c0,0.1,0,0.1,0,0.2c0.1,0.7,0.1,1.5,0.2,2.3c0.3,0.2,0.7,0.4,1,0.6c0.1,0.1,0.2,0.1,0.4,0.2
				c0.2,0.1,0.5,0.3,0.7,0.4c0.1,0.1,0.3,0.2,0.5,0.2c0.2,0.1,0.4,0.2,0.7,0.3c0.2,0.1,0.3,0.2,0.5,0.2c0.2,0.1,0.4,0.2,0.7,0.3
				c0.2,0.1,0.4,0.1,0.6,0.2c0.2,0.1,0.4,0.2,0.7,0.2c0.2,0.1,0.4,0.1,0.6,0.2c0.2,0.1,0.4,0.1,0.7,0.2c0.2,0.1,0.4,0.1,0.7,0.2
				c0.2,0.1,0.4,0.1,0.7,0.2c0.2,0.1,0.5,0.1,0.7,0.2c0.2,0.1,0.4,0.1,0.7,0.2c0.2,0.1,0.5,0.1,0.7,0.2c0.2,0,0.4,0.1,0.6,0.1
				c0.3,0.1,0.5,0.1,0.8,0.2c0.2,0,0.4,0.1,0.6,0.1c0.3,0,0.5,0.1,0.8,0.1c0.2,0,0.4,0.1,0.6,0.1c0.3,0,0.6,0.1,0.9,0.1
				c0.2,0,0.3,0,0.5,0.1c0.3,0,0.7,0.1,1,0.1c0.1,0,0.2,0,0.3,0c1.4,0.1,2.7,0.2,4.1,0.3c4.6-24.2,25.1-24.1,35.9-42.2
				c-8.9,3.2-20.8,5.1-33.9,5.1c-23.5,0-43.2-6.3-48.8-14.7c-0.1,0-0.2,0-0.3,0c3.5,13.6,10.7,18.3,16.8,24.1
				c0.1,0.1,0.2,0.2,0.3,0.3c0.2,0.2,0.4,0.4,0.6,0.6c0.2,0.2,0.4,0.4,0.5,0.5c0.1,0.1,0.2,0.2,0.3,0.3c0.2,0.3,0.5,0.5,0.7,0.8
				c0.1,0.1,0.2,0.2,0.3,0.3c0.2,0.3,0.5,0.6,0.7,0.9c0.1,0.1,0.1,0.2,0.2,0.3c0.2,0.3,0.5,0.6,0.7,0.9c0.1,0.1,0.1,0.2,0.2,0.2
				c0.2,0.3,0.5,0.7,0.7,1c0,0.1,0.1,0.1,0.1,0.2c0.2,0.4,0.5,0.8,0.7,1.1c0,0,0.1,0.1,0.1,0.1c0.2,0.4,0.4,0.8,0.6,1.2
				c0,0,0,0.1,0,0.1c0.2,0.4,0.4,0.9,0.6,1.4c0,0.1,0,0.1,0.1,0.2c0.2,0.5,0.4,0.9,0.5,1.4c0,0.1,0.1,0.2,0.1,0.2
				c0.1,0.2,0.2,0.5,0.2,0.8c0.1,0.3,0.2,0.5,0.2,0.8C-222.1,162.4-222.1,162.5-222,162.6"/>
			<path class="st3" d="M-177.7,96.6c2.2,0,4.2-1.2,5.2-3.1c6.6-12.3,10-22.5,10-30.5c0-1.8-0.1-3.6-0.2-5.3
				c-3-21.8-17.8-38.4-35.5-38.4c-17.7,0-32.5,16.6-35.5,38.4c-0.1,1.8-0.2,3.5-0.2,5.3c0,7.9,3.4,18.2,10,30.5c1,1.9,3,3.1,5.2,3.1
				h8c0.1,0,0.1,0,0.2,0c0.6-0.1,1.2-0.1,1.8-0.2c0.2,0,0.3,0,0.5,0c0.7-0.1,1.5-0.1,2.2-0.2c0.2,0,0.4,0,0.6,0
				c0.6,0,1.1-0.1,1.7-0.1c0.3,0,0.5,0,0.8,0c0.5,0,1.1,0,1.7,0c0.2,0,0.5,0,0.7,0c0.8,0,1.6,0,2.4,0s1.6,0,2.4,0c0.2,0,0.5,0,0.7,0
				c0.6,0,1.1,0,1.7,0c0.3,0,0.5,0,0.8,0c0.6,0,1.1,0.1,1.7,0.1c0.2,0,0.4,0,0.6,0c0.8,0,1.5,0.1,2.2,0.2c0.2,0,0.3,0,0.5,0
				c0.6,0,1.2,0.1,1.7,0.2c0.1,0,0.1,0,0.2,0H-177.7z"/>
			<path class="st1" d="M-198.2,19.2c17.7,0,32.5,16.6,35.5,38.4C-163.7,46.4-167.6,36-174,28c-6.7-8.4-15.3-13-24.3-13
				s-17.6,4.6-24.3,13c-6.4,8-10.3,18.4-11.2,29.7C-230.7,35.9-216,19.2-198.2,19.2"/>
			<path class="st3" d="M-198.3,107.1c-16.3,0-29.8,4.5-32.3,10.5c2.5,5.9,16,10.5,32.3,10.5c16.3,0,29.8-4.5,32.3-10.5
				C-168.5,111.7-182,107.1-198.3,107.1"/>
			<path class="st4" d="M-198.2,4.7c21.2,0,39.3,16.6,46.4,40c0.3,1.1,0.6,2.1,0.9,3.2C-155.9,21-175.2,1-198.3,1
				c-23.5,0-43,20.7-47.7,48.4c0.3-1.1,0.5-2.2,0.9-3.2C-238.2,22-219.8,4.7-198.2,4.7"/>
			<path class="st1" d="M-198.3,107.1c16.3,0,29.8,4.5,32.3,10.5c0.3-0.7,0.4-1.3,0.4-2c0-6.9-14.7-12.5-32.8-12.5
				c-18.1,0-32.8,5.6-32.8,12.5c0,0.7,0.1,1.3,0.4,2C-228.2,111.7-214.7,107.1-198.3,107.1"/>
			<path class="st0" d="M-236,102.6c0.3-0.1,0.6-0.3,0.9-0.4C-235.4,102.3-235.7,102.5-236,102.6"/>
			<path class="st0" d="M-156.9,104.4c0.3,0.2,0.5,0.3,0.8,0.5C-156.4,104.8-156.6,104.6-156.9,104.4"/>
			<path class="st0" d="M-161.6,102.2c0.3,0.1,0.6,0.2,0.9,0.4C-161,102.5-161.3,102.3-161.6,102.2"/>
			<path class="st0" d="M-152.2,107.7c0.2,0.2,0.4,0.4,0.6,0.5C-151.8,108.1-152,107.9-152.2,107.7"/>
			<path class="st0" d="M-155.8,105.1c0.3,0.2,0.5,0.3,0.8,0.5C-155.2,105.4-155.5,105.3-155.8,105.1"/>
			<path class="st0" d="M-241.7,105.6c0.2-0.2,0.5-0.3,0.8-0.5C-241.2,105.3-241.5,105.4-241.7,105.6"/>
			<path class="st0" d="M-160.2,102.8c1,0.5,2,0.9,2.9,1.4C-158.2,103.7-159.2,103.3-160.2,102.8"/>
			<path class="st0" d="M-154.8,105.8c0.8,0.6,1.6,1.1,2.3,1.7C-153.2,106.9-153.9,106.3-154.8,105.8"/>
			<path class="st0" d="M-240.6,104.9c0.3-0.2,0.5-0.3,0.8-0.5C-240.1,104.6-240.3,104.8-240.6,104.9"/>
			<path class="st0" d="M-245.1,108.2c0.2-0.2,0.4-0.4,0.6-0.5C-244.7,107.9-244.9,108.1-245.1,108.2"/>
			<path class="st0" d="M-244.2,107.5c0.7-0.6,1.5-1.2,2.3-1.7C-242.8,106.3-243.5,106.9-244.2,107.5"/>
			<path class="st0" d="M-239.4,104.2c0.9-0.5,1.9-1,2.9-1.4C-237.5,103.3-238.5,103.7-239.4,104.2"/>
			<path class="st0" d="M-190.5,96.2c-0.2,0-0.4,0-0.6,0C-190.9,96.2-190.7,96.2-190.5,96.2"/>
			<path class="st0" d="M-200.7,96c-0.2,0-0.5,0-0.7,0C-201.2,96-201,96-200.7,96"/>
			<path class="st0" d="M-192.8,96.1c-0.3,0-0.5,0-0.8,0C-193.4,96.1-193.1,96.1-192.8,96.1"/>
			<path class="st0" d="M-195.3,96c-0.2,0-0.5,0-0.7,0C-195.7,96-195.5,96-195.3,96"/>
			<path class="st0" d="M-187.8,96.4c-0.2,0-0.3,0-0.5,0C-188.1,96.4-188,96.4-187.8,96.4"/>
			<path class="st0" d="M-208.4,96.4c-0.2,0-0.3,0-0.5,0C-208.7,96.4-208.6,96.4-208.4,96.4"/>
			<path class="st0" d="M-203.1,96.1c-0.3,0-0.5,0-0.8,0C-203.6,96.1-203.3,96.1-203.1,96.1"/>
			<path class="st0" d="M-205.5,96.2c-0.2,0-0.4,0-0.6,0C-206,96.2-205.8,96.2-205.5,96.2"/>
			<path class="st0" d="M-210.6,96.6c-0.1,0-0.1,0-0.2,0h-8c-2.2,0-4.2-1.2-5.2-3.1c-6.6-12.3-10-22.5-10-30.5
				c0-1.8,0.1-3.6,0.2-5.3c0.9-11.3,4.8-21.7,11.2-29.7c6.7-8.4,15.3-13,24.3-13c9,0,17.6,4.6,24.3,13c6.4,8,10.3,18.4,11.2,29.7
				c0.1,1.8,0.2,3.5,0.2,5.3c0,7.9-3.4,18.2-10,30.5c-1,1.9-3,3.1-5.2,3.1h-8.2c-0.1,0-0.1,0-0.2,0c9.2,0.9,17.5,2.8,23.9,5.4
				c-0.1,0-0.2-0.1-0.3-0.1c0.5-0.7,1-1.4,1.4-2.2c7.7-14.3,11.5-26.5,11.5-36.7c0-6.4-0.8-12.5-2.2-18.3c-7.2-23.4-25.2-40-46.4-40
				c-21.6,0-40,17.3-46.9,41.4c-1.2,5.4-1.9,11-1.9,16.9c0,10.2,3.8,22.4,11.5,36.7c0.4,0.7,0.9,1.5,1.3,2.1
				c-0.1,0.1-0.3,0.1-0.4,0.2C-228.1,99.4-219.9,97.5-210.6,96.6"/>
			<path class="st0" d="M-198.3,135.2c26.1,0,47.6-7.7,50.1-17.6c0.2-0.7,0.3-1.3,0.3-2c0-2.5-1.2-4.9-3.5-7.2
				c0.2,0.2,0.4,0.4,0.6,0.6c-8.3-7-26.4-11.8-47.5-11.8s-39.2,4.8-47.5,11.8c0.2-0.2,0.4-0.4,0.6-0.6c-2.2,2.2-3.5,4.6-3.5,7.2
				c0,0.7,0.1,1.3,0.3,2C-245.9,127.5-224.5,135.2-198.3,135.2 M-231.1,115.6c0-6.9,14.7-12.5,32.8-12.5c18.1,0,32.8,5.6,32.8,12.5
				c0,0.7-0.1,1.3-0.4,2c-2.5,5.9-16,10.5-32.3,10.5c-16.3,0-29.8-4.5-32.3-10.5C-231,117-231.1,116.3-231.1,115.6"/>
			<path class="st4" d="M-198.3,97.2c21,0,39.2,4.8,47.5,11.8c-0.2-0.2-0.4-0.4-0.6-0.6c-0.1-0.1-0.1-0.1-0.2-0.2
				c-0.2-0.2-0.4-0.4-0.6-0.5c-0.1-0.1-0.2-0.1-0.2-0.2c-0.7-0.6-1.5-1.2-2.3-1.7c-0.1,0-0.1-0.1-0.2-0.1c-0.3-0.2-0.5-0.3-0.8-0.5
				c-0.1-0.1-0.2-0.1-0.4-0.2c-0.3-0.2-0.5-0.3-0.8-0.5c-0.1-0.1-0.2-0.1-0.4-0.2c-0.9-0.5-1.9-1-2.9-1.4c-0.2-0.1-0.3-0.1-0.5-0.2
				c-0.3-0.1-0.6-0.2-0.9-0.4c-0.2-0.1-0.4-0.2-0.6-0.2c-6.4-2.6-14.7-4.5-23.9-5.4c-0.6-0.1-1.2-0.1-1.7-0.2c-0.2,0-0.3,0-0.5,0
				c-0.7-0.1-1.5-0.1-2.2-0.2c-0.2,0-0.4,0-0.6,0c-0.6,0-1.1-0.1-1.7-0.1c-0.3,0-0.5,0-0.8,0c-0.5,0-1.1,0-1.7,0c-0.2,0-0.5,0-0.7,0
				c-0.8,0-1.6,0-2.4,0s-1.6,0-2.4,0c-0.2,0-0.5,0-0.7,0c-0.6,0-1.1,0-1.7,0c-0.3,0-0.5,0-0.8,0c-0.6,0-1.1,0.1-1.7,0.1
				c-0.2,0-0.4,0-0.6,0c-0.8,0-1.5,0.1-2.2,0.2c-0.2,0-0.3,0-0.5,0c-0.6,0-1.2,0.1-1.8,0.2c-9.2,0.9-17.5,2.8-23.9,5.4
				c-0.2,0.1-0.4,0.2-0.6,0.2c-0.3,0.1-0.6,0.2-0.9,0.4c-0.2,0.1-0.3,0.2-0.5,0.2c-1,0.5-2,0.9-2.9,1.4c-0.1,0.1-0.3,0.1-0.4,0.2
				c-0.3,0.2-0.5,0.3-0.8,0.5c-0.1,0.1-0.2,0.1-0.4,0.2c-0.3,0.2-0.5,0.3-0.8,0.5c-0.1,0-0.1,0.1-0.2,0.1c-0.8,0.6-1.6,1.1-2.3,1.7
				c-0.1,0.1-0.2,0.1-0.2,0.2c-0.2,0.2-0.4,0.4-0.6,0.5c-0.1,0.1-0.1,0.1-0.2,0.2c-0.2,0.2-0.4,0.4-0.6,0.6
				C-237.5,102.1-219.4,97.2-198.3,97.2"/>
		</g>
	</g>
</g>
</svg>
