<svg xmlns="http://www.w3.org/2000/svg" width="101" height="184"><path fill="#f8d262" d="M100.4 116.6c.3-.7.4-1.3.4-2H83c0 .7-.1 1.4-.4 2-1 2.4-3.8 4.6-7.9 6.3-3.1 1.3-7 2.4-11.3 3.1h-.1c-.3 0-.5.1-.8.1-.2 0-.4.1-.6.1h-.2c-3.5.5-7.3.8-11.3.8s-7.8-.3-11.3-.8h-.2c-.2 0-.4-.1-.6-.1-.3 0-.6-.1-.8-.1h-.1c-4.3-.7-8.2-1.8-11.3-3.1-4.1-1.7-6.9-3.9-7.9-6.3-.1 0-.1-.1-.1-.1l-.1-.2-.5-1.7H.1v1.4c0 .2 0 .4.1.6v3.5c.2.8.5 1.6.8 2.4.1.3.2.7.3 1h.2v.1h.1-.2c-.1 0-.1-.1-.1-.1-.1 0 0 .1 0 .1h-.1c.8 3.1 1.9 5.7 3 8 .3.5.5 1 .8 1.5l.3.6c.2.3.3.6.5.8.2.3.4.7.6 1 .1.1.2.2.2.4 2.6 3.7 5.5 6.4 8.3 9 1 .9 2 1.8 3 2.8l.3.3.6.6.5.5.3.3.7.8.3.3c.2.3.5.6.7.9l.2.3c.2.3.5.6.7.9l.2.2c.2.3.5.7.7 1l.1.2c.2.4.5.8.7 1.1l.1.1.6 1.2v.1c.2.4.4.9.6 1.4l.1.2c.2.5.4.9.5 1.4l.1.2c.1.2.1.5.2.8s.1.5.2.8l.3.4c.1.5.3 1.1.4 1.6l.1.2v.1l.3 1.8v.3c.1.6.2 1.3.2 2v.2c.1.5.1 1.1.1 1.7v.6c.3.2.6.4 1 .6l.4.2.7.4.5.2.7.3.5.2.7.3.6.2.7.2.5.2.7.2.7.2.7.2.7.2.7.2.7.2.6.1.8.2.6.1.8.1.6.1.9.1.5.1 1 .1H44.3c.9.1 1.8.1 2.7.2-.9 0-1.9-.1-2.8-.2 1.3.2 2.7.3 4.1.3h.1c3.4.1 6.7-.1 10-.6h.2c.5-.1.9-.1 1.3-.2s.8-.1 1.2-.2c.1 0 .3-.1.4-.1 4.2-.9 7.9-2.3 10.8-4.2v-.2c.2-3.8.7-6.9 1.5-9.5 4.8-15.8 19.2-15.4 25-36.2 1.3-1.8 2.1-3.6 2.1-5.6 0-.7-.1-1.3-.5-2M78.9 151c-.5.6-1 1.3-1.5 2s-1 1.4-1.4 2.2-.8 1.6-1.2 2.5c.4-.9.8-1.7 1.2-2.5.4-.8.9-1.5 1.4-2.2.4-.7.9-1.4 1.5-2 .5-.6 1.1-1.2 1.6-1.8-.5.6-1.1 1.2-1.6 1.8zm8.8-8.5c-.6.6-1.2 1.2-1.8 1.7-.6.6-1.2 1.1-1.8 1.7-.6.5-1.2 1.1-1.8 1.7.6-.6 1.2-1.1 1.8-1.7.6-.5 1.2-1.1 1.8-1.7s1.2-1.2 1.8-1.7 1.2-1.2 1.8-1.8c-.5.6-1.1 1.2-1.8 1.8z"/><path fill="#f3b12c" d="M84.3 133.2c-9 3.2-20.8 5.1-33.9 5.1h-.1c-23.5 0-43.2-6.3-48.7-14.7h-.4c.8 3.1 1.9 5.7 3 8 .3.5.5 1 .8 1.5l.3.6c.2.3.3.6.5.8.2.3.4.7.6 1 .1.1.2.2.2.4 2.6 3.7 5.5 6.4 8.3 9 1 .9 2 1.8 3 2.8l.3.3.6.6.5.5.3.3.7.8.3.3c.2.3.5.6.7.9l.2.3c.2.3.5.6.7.9l.2.2c.2.3.5.7.7 1l.1.2c.2.4.5.8.7 1.1l.1.1.6 1.2v.1c.2.4.4.9.6 1.4l.1.2c.2.5.4.9.5 1.4l.1.2c.1.2.1.5.2.8s.1.5.2.8l.3.4c.1.5.3 1.1.4 1.6l.1.2v.1l.3 1.8v.3c.1.6.2 1.3.2 2v.2c.1.5.1 1.1.1 1.7v.6c.3.2.6.4 1 .6l.4.2.7.4.5.2.7.3.5.2.7.3.6.2.7.2.5.2.7.2.7.2.7.2.7.2.7.2.7.2.6.1.8.2.6.1.8.1.6.1.9.1.5.1 1 .1H44.3c.9.1 1.8.1 2.7.2.4 0 .9.1 1.3.1h.1c4.6-24.2 25.1-24.1 35.9-42.2z"/><path fill="#e18b1b" d="M73.7 160.4c4.9-15.8 19.3-15.4 25-36.2 1.3-1.6 2-3.5 2.1-5.6 0-.7-.1-1.2-.3-1.9v-.1c-2.5 9.9-24 17.6-50.1 17.6S2.8 126.5.3 116.6c-.1.2-.1.3-.1.5v3c.2.8.5 1.6.8 2.4.1.3.2.7.3 1h.2s0 .1.1.1c5.6 8.4 25.3 14.7 48.7 14.7 13 0 24.9-1.9 33.9-5.1h.1c-10.8 18.1-31.3 18-35.9 42.2 3.4.1 6.7-.1 10-.6h.2c.5-.1.9-.1 1.3-.2s.8-.1 1.2-.2c.1 0 .3-.1.4-.1 4.2-.9 7.9-2.3 10.8-4.2 0-3.4.5-6.6 1.4-9.7z"/></svg>