<svg id="mute" xmlns="http://www.w3.org/2000/svg" width="44" height="44" viewBox="0 0 44 44">
  <g id="mute-2" data-name="mute" transform="translate(12.241 11.382)">
    <path id="Path_3341" data-name="Path 3341" d="M192.466.779a.776.776,0,0,0-.434-.7.755.755,0,0,0-.822.093l-6.869,5.473,8.125,8.125Z" transform="translate(-175.411 0)" fill="#92a0b0"/>
    <path id="Path_3342" data-name="Path 3342" d="M21.525,20.451,1.368.294a.775.775,0,0,0-1.1,1.1L5.15,6.27H4.7A1.576,1.576,0,0,0,3.145,7.82v6.2A1.555,1.555,0,0,0,4.7,15.573h3.6L15.844,21.6a.791.791,0,0,0,.481.171.907.907,0,0,0,.341-.078A.776.776,0,0,0,17.1,21V18.22l3.328,3.327a.776.776,0,1,0,1.1-1.1Z" transform="translate(-0.045 -0.064)" fill="#92a0b0"/>
  </g>
  <rect id="Rectangle_953" data-name="Rectangle 953" width="44" height="44" fill="rgba(255,255,255,0)"/>
</svg>
