<svg xmlns="http://www.w3.org/2000/svg" width="170" height="170" viewBox="0 0 170 170" opacity="0.11">
  <path d="M56.8 106.8C56.8 107.7 57.2 108.5 58.1 108.4 59 108.4 59.5 107.7 59.5 106.8 59.5 105.9 58.9 105.2 58.1 105.2 57.2 105.1 56.8 105.8 56.8 106.8ZM67.6 118C68.4 118 68.9 117.6 69 116.9 69.1 116.2 68.7 115.6 68 115.4 66.9 115.1 66.4 115.9 66.4 116.7 66.3 117.4 66.9 117.9 67.6 118ZM67.5 128C68.3 128.1 68.8 127.7 69 127 69.2 126.3 68.8 125.7 68.1 125.5 67 125.1 66.5 125.9 66.4 126.7 66.2 127.3 66.8 127.8 67.5 128ZM63.3 3.3C64.2 3.2 64.6 2.4 64.4 1.5 64.2 0.6 63.8 0.1 63.2 0.1 61.9 0.2 61.2 0.9 61.2 1.7 61.3 2.7 62.3 3.4 63.3 3.3ZM57.7 7.7C58.3 7.9 58.5 7.4 58.7 7 59 6.3 58.7 5.7 58.1 5.5 57.5 5.3 56.9 5.5 56.8 6.3 56.8 7 57 7.5 57.7 7.7ZM1 102.4C1.1 102.9 1.4 103.3 2.4 103.2 2.9 102.9 3.8 102.4 3.7 101.2 3.7 100.7 3.4 100.2 2.8 100.5 1.9 100.8 0.8 101.1 1 102.4ZM67.6 98C68.4 98.1 68.8 97.6 69 96.9 69 96.2 68.6 95.6 67.9 95.4 66.8 95.1 66.4 95.9 66.3 96.8 66.3 97.5 66.9 98 67.6 98ZM67.8 105.4C67.3 105.4 66.9 105.7 66.9 106.3 66.9 107 67.1 107.6 68 107.6 68.5 107.6 68.9 107.2 68.9 106.5 68.8 106 68.7 105.4 67.8 105.4ZM57.2 16.2C57 16.7 57.4 17.1 57.9 17.2 58.4 17.3 58.8 17.2 58.9 16.4 58.6 16.2 58.3 15.9 57.9 15.7 57.8 15.7 57.3 16 57.2 16.2ZM2.7 73C3.4 72.9 3.8 72.3 3.8 71.7 3.8 71 3.2 70.4 2.6 70.5 1.8 70.5 1.1 71.1 1.3 72.1 1.4 72.6 2 73 2.7 73ZM2.7 82.9C3.4 82.8 3.7 82.2 3.8 81.6 3.6 80.9 3.1 80.4 2.5 80.4 1.8 80.4 1.2 81 1.2 81.6 1.2 82.5 1.8 83.1 2.7 82.9ZM78 7.7C78.4 7.6 78.8 7.3 79.1 7.1 78.7 6.1 78.6 5.3 77.7 5.5 77.2 5.6 76.8 6 76.8 6.5 76.9 7.1 77.2 7.8 78 7.7ZM2.4 123.1C2.9 122.8 3.8 122.3 3.7 121.1 3.7 120.6 3.4 120.1 2.8 120.4 1.9 120.8 0.8 121 1 122.3 1.1 122.8 1.4 123.2 2.4 123.1ZM57.8 47.7C58.5 47.5 59 47.2 59.1 46.4 59 45.6 58.5 45.2 57.7 45.2 56.7 45.2 56.1 45.8 56.3 46.8 56.4 47.5 57 47.9 57.8 47.7ZM68.9 16.7C68.9 16 68.7 15.4 67.9 15.4 67.4 15.4 67 15.7 67 16.3 67 17 67.2 17.6 68.1 17.6 68.5 17.7 68.8 17.3 68.9 16.7ZM57.2 27.7C58.1 27.8 58.8 27.4 59 26.5 58.9 25.7 58.4 25.3 57.7 25.3 56.7 25.3 56.1 25.9 56.2 26.8 56.3 27.1 56.9 27.7 57.2 27.7ZM57.8 35.4C56.9 35.6 56.7 36.2 56.9 36.9 57.1 37.4 57.4 37.8 58 37.7 58.7 37.5 59 36.9 58.8 36.2 58.6 35.7 58.3 35.3 57.8 35.4ZM67.6 8C68.4 8.1 68.8 7.6 69 6.9 69 6.2 68.6 5.6 67.9 5.4 66.8 5.1 66.4 5.9 66.3 6.7 66.3 7.5 66.9 8 67.6 8ZM67.6 25.4C66.7 25.4 66.2 26.1 66.4 27 66.6 27.9 67.4 28.3 68.2 28.2 68.9 28.2 69.2 27.6 69.2 26.9 68.9 26.2 68.6 25.4 67.6 25.4ZM72.3 13C73.3 13.2 73.9 12.7 74 11.8 74 11.1 73.5 10.7 72.8 10.5 71.9 10.4 71.6 11 71.4 11.6 71.2 12.2 71.6 12.8 72.3 13ZM71.7 133.2C72.9 133.5 73.5 132.7 73.9 131.7 74.1 131.1 74.2 130.3 73.2 130.3 72.2 130.4 71.4 131 71 132 71 132.6 71.3 133 71.7 133.2ZM72.6 63C73.4 63 73.9 62.6 74 61.9 74.1 61.2 73.7 60.6 73 60.4 71.9 60.1 71.4 60.9 71.4 61.7 71.3 62.4 71.9 62.9 72.6 63ZM72.7 20.4C71.6 20.3 71.2 21.1 71.3 22 71.4 22.7 71.9 23.2 72.7 23.1 73.4 23 73.8 22.5 73.9 21.8 73.9 21 73.4 20.5 72.7 20.4ZM77.6 58.1C78.4 58.2 78.8 57.7 79 57 79 56.3 78.6 55.7 77.9 55.5 76.8 55.2 76.4 56 76.3 56.9 76.3 57.5 76.9 58 77.6 58.1ZM71.8 31.7C71.8 32.6 72.1 33.3 73.1 33.4 74 33.3 74.6 32.8 74.6 31.8 74.6 30.8 74.1 30.2 73.2 30.1 72.3 30.1 71.9 30.8 71.8 31.7ZM77.7 17.7C78.2 17.9 78.6 17.5 78.8 17.1 79.1 16.4 78.8 15.9 78.3 15.6 77.5 15.4 77.2 15.7 77 16.2 76.7 16.8 77 17.4 77.7 17.7ZM77 148.2C78.2 148.4 78.7 147.4 79 146.6 79.2 146 79 145.4 78.5 145.4 77.4 145.2 76.6 145.9 76.2 146.8 75.8 147.5 76.2 148.1 77 148.2ZM73 2.7C73.7 2.5 74 1.9 73.8 1.2 73.6 0.7 73.4 0.3 73 0.4 71.9 0.7 71.7 1.2 71.9 2 72.1 2.4 72.4 2.9 73 2.7ZM68.4 145.3C67.7 145.2 67.1 145.4 67 146.2 66.9 146.8 67.3 147.1 67.8 147.2 68.5 147.3 69 147.1 69.2 146.3 69.3 145.7 68.9 145.4 68.4 145.3ZM67.7 65.4C67.2 65.5 66.8 65.9 66.8 66.4 66.9 67.1 67.1 67.8 67.9 67.6 68.3 67.5 68.7 67.2 68.9 67.1 68.8 66 68.6 65.3 67.7 65.4ZM67.9 47.7C68.4 47.7 68.8 47.3 68.8 46.7 68.8 46 68.6 45.4 67.8 45.4 67.3 45.4 66.9 45.7 66.9 46.3 66.9 47.1 67.1 47.7 67.9 47.7ZM67.7 35.4C66.6 35.3 66.2 36.1 66.3 37 66.4 37.7 66.9 38.2 67.7 38.1 68.4 38 68.8 37.5 68.9 36.8 68.9 36 68.4 35.5 67.7 35.4ZM67.7 55.4C67.2 55.5 66.8 55.9 66.8 56.4 66.9 57.1 67.1 57.8 67.9 57.6 68.3 57.5 68.7 57.2 68.9 57.1 68.8 56 68.6 55.3 67.7 55.4ZM67.8 137.7C68.7 137.7 68.8 137.1 68.9 136.4 68.9 135.8 68.5 135.5 68 135.5 67.1 135.5 66.9 136.1 67 136.8 66.9 137.3 67.3 137.6 67.8 137.7ZM67.7 77.6C68.6 77.8 68.7 77.1 68.8 76.7 68.9 75.8 68.5 75.5 68 75.4 67.1 75.3 66.8 75.9 66.9 76.6 66.9 77 67.4 77.6 67.7 77.6ZM67.8 87.7C68.7 87.7 68.8 87.1 68.9 86.4 68.9 85.8 68.5 85.5 68 85.5 67.1 85.5 66.9 86.1 67 86.8 66.9 87.3 67.3 87.6 67.8 87.7ZM2.6 90.4C2.1 90.4 1.8 90.8 1.8 91.3 1.8 91.9 1.8 92.5 2.6 92.7 3.4 92.7 3.7 92.1 3.8 91.5 3.8 90.9 3.4 90.3 2.6 90.4ZM22.9 123C23.6 122.8 23.9 122.3 23.9 121.6 23.7 120.9 23.2 120.5 22.6 120.5 21.9 120.5 21.4 121.2 21.4 121.7 21.3 122.5 21.8 123.2 22.9 123ZM17.7 155.4C16.8 155.6 16.6 156.2 16.8 156.8 16.9 157.2 17.3 157.7 17.6 157.8 18.4 158 18.7 157.3 18.7 156.7 18.8 155.9 18.5 155.3 17.7 155.4ZM22.6 153C23.4 152.9 24.1 152.4 23.8 151.4 23.6 150.7 23.1 150.4 22.4 150.4 21.7 150.6 21.3 151.2 21.4 151.8 21.3 152.5 21.9 153.1 22.6 153ZM22.6 160.5C21.7 160.5 21.2 161.1 21.3 162 21.4 162.7 22 163.1 22.7 163 23.4 162.9 23.7 162.4 23.9 161.7 23.7 161.1 23.3 160.5 22.6 160.5ZM23.1 100.6C22.5 100.2 21.9 100.5 21.5 101.1 21 102 21.4 102.6 22.2 102.9 22.9 103.2 23.4 102.8 23.7 102.2 24.1 101.4 23.6 101 23.1 100.6ZM22.6 143C23.3 143 23.7 142.5 23.9 141.8 23.8 141.1 23.5 140.6 22.8 140.5 21.8 140.4 21.4 141.1 21.4 141.9 21.3 142.6 21.9 143 22.6 143ZM22.9 90.6C22.4 90.4 22 90.8 21.9 91.3 21.7 92.2 22.1 92.9 23 93.2 23.5 93.4 23.9 93 24.1 92.5 24.1 91.6 23.8 90.9 22.9 90.6ZM22.8 133C23.5 132.9 23.9 132.3 23.9 131.7 23.9 131 23.3 130.5 22.7 130.5 21.8 130.5 21.3 131.1 21.5 132.1 21.5 132.7 22 133.1 22.8 133ZM22.2 112.7C23.1 112.8 23.7 112.4 23.9 111.5 23.8 110.8 23.4 110.3 22.7 110.4 21.8 110.5 21.3 111 21.3 111.9 21.3 112.4 21.7 112.7 22.2 112.7ZM27.6 105.4C27.1 105.5 26.8 105.8 26.8 106.3 26.8 107 26.9 107.6 27.7 107.7 28.6 107.8 28.7 107.1 28.9 106.5 28.6 105.9 28.5 105.3 27.6 105.4ZM27.5 115.4C26.8 115.5 26.3 116 26.3 116.7 26.3 117.3 26.7 117.9 27.4 118 28.4 118.1 28.9 117.6 28.8 116.6 28.8 115.9 28.2 115.6 27.5 115.4ZM27.7 125.4C26.9 125.3 26.7 126 26.8 126.6 26.8 127 27.1 127.7 27.4 127.8 28 128 28.6 127.7 28.7 126.9 28.8 126.1 28.6 125.6 27.7 125.4ZM27.7 77.7C28.6 77.8 28.7 77.1 28.8 76.5 28.6 75.9 28.4 75.2 27.6 75.3 27.1 75.4 26.8 75.7 26.8 76.2 26.8 77 26.9 77.6 27.7 77.7ZM27.7 155.4C26.8 155.6 26.6 156.2 26.8 156.8 26.9 157.2 27.3 157.7 27.6 157.8 28.4 158 28.7 157.3 28.7 156.7 28.8 155.9 28.5 155.3 27.7 155.4ZM27.5 135.4C26.8 135.5 26.3 136 26.3 136.7 26.3 137.3 26.7 137.9 27.4 138 28.4 138.1 28.9 137.6 28.8 136.6 28.8 135.9 28.2 135.6 27.5 135.4ZM27.9 165.4C27.3 165.2 27 165.7 26.9 166.1 26.7 166.8 26.9 167.5 27.5 167.7 28 168 28.6 167.6 28.7 166.8 28.8 166.1 28.6 165.6 27.9 165.4ZM27.6 147.8C28.5 147.9 28.7 147.2 28.7 146.6 28.7 146.2 28.4 145.6 28 145.5 27.4 145.3 26.8 145.5 26.7 146.4 26.8 147 26.9 147.5 27.6 147.8ZM13.1 120.4C12.8 120.3 12 120.6 11.9 120.8 11.6 121.5 11.6 122.4 12.6 122.7 13.2 122.9 13.4 122.4 13.7 122 13.9 121.3 13.7 120.7 13.1 120.4ZM7.6 155.4C7.1 155.5 6.8 155.8 6.8 156.3 6.8 156.9 6.8 157.6 7.6 157.7 8.4 157.8 8.6 157.1 8.8 156.5 8.6 155.9 8.4 155.3 7.6 155.4ZM2.6 130.5C2 130.4 1.4 131 1.3 131.6 1.2 132.6 1.9 133 2.7 133.2 3.4 133.3 3.9 133 3.9 132.2 3.9 131.2 3.4 130.6 2.6 130.5ZM7.7 137.8C8.5 137.6 8.8 137.1 8.7 136.4 8.6 135.6 8 135.3 7.4 135.5 7.1 135.6 6.8 136.2 6.8 136.6 6.8 137.1 6.9 137.9 7.7 137.8ZM7.4 147.7C8 147.8 8.6 147.5 8.8 146.8 8.9 146.1 8.7 145.6 7.8 145.4 7.1 145.3 6.9 146 6.9 146.6 6.8 147 7.1 147.7 7.4 147.7ZM7.8 165.8C7.6 165.8 7.2 166 7.2 166.2 7 166.9 7.5 167.1 7.9 167.1 8.1 167.1 8.4 166.8 8.6 166.7 8.6 166.1 8.3 165.8 7.8 165.8ZM2.4 140.4C1.7 140.4 1.1 141.1 1.2 141.6 1.2 142.4 1.8 143.1 2.8 142.9 3.5 142.8 3.8 142.2 3.8 141.5 3.6 140.8 3.1 140.4 2.4 140.4ZM2.8 152.7C3.5 152.5 3.8 152 3.7 151.3 3.6 150.5 2.9 150.2 2.4 150.4 1.8 150.6 1.6 151.3 1.9 152 2 152.4 2.2 152.9 2.8 152.7ZM3 160.3C2.1 160.3 1.8 160.8 2 161.5 2 161.9 2.5 162.3 3 162.1 3.5 162 3.9 161.8 3.8 161.1 3.8 160.6 3.4 160.4 3 160.3ZM12.5 110.4C11.8 110.6 11.3 111 11.2 111.7 11.2 112.3 11.6 112.9 12.3 113 13.3 113.1 13.8 112.6 13.7 111.6 13.8 110.9 13.1 110.6 12.5 110.4ZM12.6 102.7C13.4 102.8 13.7 102.2 13.7 101.5 13.7 100.9 13.4 100.3 13.2 100.3 11.7 100.4 11.7 101.1 11.7 101.7 11.8 102.3 12.1 102.7 12.6 102.7ZM12.5 90.4C11.8 90.4 11.2 91.1 11.3 91.6 11.4 92.4 11.9 93.1 12.9 92.9 13.6 92.8 13.9 92.2 13.9 91.5 13.6 90.9 13.1 90.4 12.5 90.4ZM12.7 160.4C12 160.3 11.8 161 11.8 161.6 11.8 162 12.1 162.7 12.4 162.8 13 163 13.6 162.7 13.7 161.9 13.8 161.1 13.6 160.6 12.7 160.4ZM2.6 110.4C1.7 110.4 1.1 111 1.3 111.9 1.4 112.6 2 113 2.7 113 3.4 112.9 3.7 112.4 3.9 111.7 3.7 111 3.2 110.4 2.6 110.4ZM12.6 82.7C13.4 82.8 13.7 82.2 13.7 81.5 13.7 80.9 13.4 80.3 13.2 80.3 11.7 80.4 11.7 81.1 11.7 81.7 11.8 82.3 12.1 82.7 12.6 82.7ZM12.7 70.5C11.7 70.4 11.2 71 11.2 71.9 11.2 72.6 11.9 73 12.5 73 13.2 73 13.6 72.5 13.8 71.8 13.7 71.2 13.4 70.6 12.7 70.5ZM12.9 152.7C13.6 152.6 13.9 152 13.8 151.3 13.7 150.5 13.1 150.2 12.5 150.4 12.2 150.5 11.9 151.1 11.9 151.5 11.8 152.1 11.9 152.9 12.9 152.7ZM13.3 140.3C11.8 140.4 11.8 141.1 11.8 141.7 11.8 142.2 12.1 142.6 12.6 142.7 13.4 142.8 13.7 142.2 13.7 141.5 13.8 140.9 13.5 140.3 13.3 140.3ZM87.7 145.5C87 145.7 86.8 146.3 87 147 87.2 147.5 87.6 147.8 88.2 147.7 88.7 147.3 89.1 146.8 88.8 146.1 88.6 145.6 88.2 145.2 87.7 145.5ZM103.1 30.5C102.3 30.3 102 31 101.9 31.8 102.1 32 102.4 32.6 102.8 32.7 103.7 32.9 103.9 32.1 103.9 31.5 103.9 31.1 103.4 30.6 103.1 30.5ZM102.5 23C103.5 23.2 104.1 22.6 104.1 21.6 104.1 20.9 103.5 20.5 102.8 20.3 102 20.3 101.6 20.8 101.5 21.5 101.3 22.3 101.8 22.9 102.5 23ZM103.1 43C103.8 42.9 104.2 42.2 104 41.5 103.9 40.8 103.3 40.4 102.6 40.4 101.8 40.5 101.3 41.1 101.4 41.7 101.4 42.6 102.2 43.2 103.1 43ZM93.1 2.7C93.5 2.6 93.9 2.3 94.1 2.2 93.8 1 93.8 0.3 92.8 0.4 92.3 0.5 91.9 0.8 92 1.4 92 2.1 92.2 2.8 93.1 2.7ZM102.7 12.7C103.2 12.9 103.6 12.5 103.8 12 104.1 11.3 103.8 10.8 103.2 10.4 102.6 10.3 102.2 10.6 102.1 11 101.8 11.8 102 12.4 102.7 12.7ZM102 82C102.2 82.5 102.6 82.8 103.2 82.7 103.7 82.3 104.1 81.8 103.8 81.1 103.6 80.6 103.2 80.3 102.7 80.5 102 80.7 101.8 81.3 102 82ZM103 2.7C103.5 2.7 103.8 2.3 103.9 1.7 103.9 1 103.8 0.4 102.9 0.4 102.4 0.4 102 0.7 102 1.3 102 2 102.1 2.7 103 2.7ZM103 70.4C102.4 70.4 102.1 70.7 102 71.2 101.9 71.9 102.1 72.5 102.9 72.6 103.5 72.7 103.8 72.3 103.9 71.8 104 71.1 103.8 70.6 103 70.4ZM102.8 90.4C102 90.6 101.8 91.2 102 91.9 102.1 92.4 102.4 92.8 103 92.7 103.7 92.5 104 91.9 103.8 91.2 103.7 90.7 103.4 90.3 102.8 90.4ZM102.9 52.7C103.8 52.7 103.9 52.1 103.9 51.4 103.9 50.8 103.5 50.5 103 50.5 102.1 50.5 101.9 51.1 102 51.8 102 52.3 102.3 52.6 102.9 52.7ZM98.1 47.7C98.5 47.6 98.9 47.3 99.1 47.2 98.8 46 98.8 45.3 97.8 45.4 97.3 45.5 96.9 45.8 97 46.4 97 47.1 97.2 47.8 98.1 47.7ZM97.8 17.7C98.7 17.9 98.9 17.1 98.9 16.5 98.9 16.1 98.4 15.6 98.1 15.5 97.3 15.3 97 16 96.9 16.8 97.2 17 97.4 17.6 97.8 17.7ZM97.3 87.7C98.2 87.9 99 87.6 99.1 86.6 99.2 85.9 98.7 85.4 98 85.2 97.2 85.1 96.7 85.5 96.5 86.2 96.2 87 96.5 87.5 97.3 87.7ZM97.7 75.4C97.2 75.5 96.8 75.8 96.9 76.4 97 76.9 97.3 77.3 97.9 77.1 98.4 77 98.8 76.8 98.7 76.1 98.5 75.7 98.3 75.3 97.7 75.4ZM97.7 55.4C96.7 55.5 96.2 56.1 96.5 57.1 96.7 57.8 97.3 58.2 98 58 98.7 57.9 99 57.3 99.1 56.6 98.9 55.9 98.4 55.4 97.7 55.4ZM98 8C98.8 8.2 99.1 7.6 99.2 6.9 99.1 6 98.8 5.3 97.8 5.2 97.2 5.2 96.4 5.3 96.6 6.2 96.6 7.1 97.1 7.9 98 8ZM97.4 38C98.1 38.3 98.7 37.9 99 37.2 99.3 36.4 98.9 35.9 98.3 35.6 97.6 35.2 97 35.4 96.6 36 96.1 37 96.5 37.6 97.4 38ZM98.8 66.1C98.6 65.6 98.2 65.3 97.7 65.5 97 65.8 96.8 66.4 97.1 67.1 97.3 67.6 97.7 67.9 98.3 67.8 98.7 67.3 99.1 66.8 98.8 66.1ZM98.2 27.9C99 27.8 99.2 27.1 99.2 26.5 99.2 25.8 98.7 25.4 97.9 25.3 97 25.4 97 26.1 97 26.7 97.1 27.4 97.5 28 98.2 27.9ZM108.1 7.7C108.5 7.6 108.7 7.1 109 6.7 108.7 6 108.7 5.2 107.8 5.4 107.3 5.5 106.9 5.9 107 6.4 107 7.1 107.2 7.9 108.1 7.7ZM107 26.3C106.9 27 107.1 27.6 107.9 27.8 108.5 27.9 108.8 27.5 108.9 27 109 26.3 108.9 25.7 108 25.6 107.4 25.4 107.1 25.7 107 26.3ZM112.6 53C113.4 53.2 113.9 52.7 114 52 114.2 51 113.6 50.4 112.7 50.4 111.9 50.4 111.6 51 111.4 51.6 111.4 52.4 111.9 52.9 112.6 53ZM107.9 15.4C107.4 15.4 107 15.7 107 16.3 107 17 107.2 17.7 108 17.6 108.6 17.6 108.8 17.2 108.9 16.6 108.9 16.1 108.8 15.4 107.9 15.4ZM112.5 43C113.5 43.2 114.1 42.6 114.1 41.6 114.1 40.9 113.5 40.5 112.9 40.4 111.9 40.3 111.6 40.9 111.4 41.6 111.3 42.3 111.8 42.9 112.5 43ZM112.9 30.4C112.4 30.4 112 30.7 112 31.3 112 32 112.2 32.7 113 32.6 113.6 32.6 113.8 32.2 113.9 31.6 113.9 31.1 113.8 30.4 112.9 30.4ZM112.9 13.1C113.7 13.1 114 12.5 114.1 11.8 114 11 113.5 10.6 112.8 10.5 112 10.4 111.5 10.9 111.4 11.6 111.3 12.5 111.9 13.1 112.9 13.1ZM102 61.8C102.1 62.3 102.4 62.6 103 62.7 103.8 62.5 104 62 103.9 61.3 103.8 60.8 103.5 60.4 102.9 60.5 102 60.5 101.9 61.1 102 61.8ZM113.2 20.5C112.7 20.3 112.2 20.6 112.1 21.1 111.8 21.8 112.1 22.4 112.8 22.7 113.4 22.9 113.7 22.5 113.9 22 114.1 21.3 113.8 20.7 113.2 20.5ZM107.6 118C108.4 118.2 108.9 117.7 109 117 109.2 116 108.6 115.4 107.7 115.4 106.9 115.4 106.6 116 106.4 116.6 106.5 117.4 106.9 117.9 107.6 118ZM107.6 78C108.4 78.2 108.9 77.7 109 77 109.2 76 108.6 75.4 107.7 75.4 106.9 75.4 106.6 76 106.4 76.6 106.4 77.4 106.9 77.9 107.6 78ZM108 37.7C108.6 37.7 108.8 37.3 108.9 36.7 108.9 36 108.8 35.3 107.9 35.4 107.4 35.4 107 35.7 107 36.3 107 37.1 107.1 37.7 108 37.7ZM102.7 100.4C101.7 100.4 101.2 101.1 101.5 102 101.7 102.7 102.3 103.1 103 103 103.7 102.9 104 102.3 104.1 101.6 103.9 100.9 103.4 100.4 102.7 100.4ZM103.3 110.6C102.6 110.2 102 110.3 101.6 111.1 101.1 112 101.5 112.7 102.3 113 103 113.3 103.6 112.9 104 112 104.3 111.5 103.9 111 103.3 110.6ZM107.8 47.7C108.7 48 108.8 47.1 108.9 46.5 108.9 45.9 108.6 45.5 108.1 45.4 107.2 45.3 106.9 45.9 107 46.6 107 47 107.4 47.6 107.8 47.7ZM107.8 67.8C108.5 67.7 109 67.3 109.2 66.6 109.1 65.9 108.7 65.4 108 65.3 107 65.2 106.5 65.9 106.5 66.8 106.4 67.5 107 67.9 107.8 67.8ZM108 58.1C108.7 58 109 57.4 109.1 56.7 108.9 56 108.5 55.5 107.7 55.5 106.7 55.5 106.2 56.2 106.5 57.2 106.7 57.8 107.3 58.2 108 58.1ZM87.6 68.1C89 68.3 89.2 67.2 89.2 66.2 89.2 65.3 88.8 64.6 87.9 64.5 86.8 64.6 86.6 65.4 86.6 66.3 86.5 67 86.6 67.9 87.6 68.1ZM82.6 93C83.4 93.1 83.8 92.6 84 91.9 84 91.2 83.6 90.6 82.9 90.4 81.8 90.1 81.4 90.9 81.3 91.7 81.3 92.5 81.9 92.9 82.6 93ZM82 143.2C83.2 143.3 83.6 142.4 84 141.5 84.2 141 84 140.4 83.5 140.3 82.4 140.1 81.6 140.8 81.2 141.7 80.8 142.4 81.1 143 82 143.2ZM93.3 13.3C94 13.3 94.3 12.7 94.3 12 94 11.2 93.6 10.5 92.7 10.5 91.8 10.5 91.3 11.2 91.5 12.1 91.7 12.9 92.5 13.3 93.3 13.3ZM77 77C77.2 77.5 77.6 77.8 78.1 77.7 78.7 77.3 79.1 76.8 78.8 76.1 78.6 75.6 78.2 75.3 77.7 75.5 77 75.7 76.7 76.3 77 77ZM83 2.9C83.7 2.9 84.2 2.3 84.2 1.6 84.2 0.9 83.8 0.4 83 0.3 82.2 0.4 81.9 0.9 81.9 1.6 82 2.2 82.3 2.8 83 2.9ZM87.3 118C88 118.3 88.6 118 88.9 117.3 89.2 116.5 88.8 116 88.2 115.6 87.5 115.2 86.9 115.4 86.5 116.1 86 117 86.5 117.6 87.3 118ZM82.6 50.4C81.9 50.6 81.4 51.1 81.4 51.7 81.5 52.8 82.3 53.3 83.4 53.3 84.2 53.2 84.4 52.6 84.3 51.9 84 51 83.5 50.5 82.6 50.4ZM78.9 66.4C78.9 65.8 78.5 65.5 78 65.5 77.1 65.5 76.9 66.1 76.9 66.8 76.9 67.4 77.3 67.7 77.8 67.7 78.7 67.7 78.8 67.1 78.9 66.4ZM78.2 118C78.9 117.8 79.2 117.1 79 116.4 78.8 115.7 78.2 115.4 77.5 115.4 76.8 115.7 76.3 116.2 76.4 116.9 76.5 117.8 77.2 118.3 78.2 118ZM76.3 106.8C76.4 107.7 77.2 108.2 78.1 107.9 78.8 107.7 79.1 107 78.9 106.3 78.7 105.6 78.1 105.3 77.4 105.3 76.7 105.6 76.3 106.2 76.3 106.8ZM78.1 35.5C77.2 35.4 76.9 36 77 36.7 77 37.1 77.5 37.6 77.8 37.7 78.7 37.9 78.8 37.2 79.1 36 78.9 35.9 78.5 35.5 78.1 35.5ZM78.3 138.2C78.9 138.2 79.2 137.8 79.2 137.3 79.2 136.4 78.8 135.7 77.8 135.5 77.2 135.4 77 136 77 136.5 76.9 137.4 77.3 138 78.3 138.2ZM76.9 46.3C76.8 47 77 47.6 77.8 47.7 78.4 47.8 78.7 47.4 78.8 46.9 78.9 46.2 78.8 45.6 77.9 45.5 77.4 45.4 77 45.7 76.9 46.3ZM77.9 85.3C77 85.3 76.9 86 77 86.7 77.1 87.4 77.5 87.9 78.2 87.9 79 87.8 79.2 87.2 79.2 86.5 79 85.7 78.6 85.2 77.9 85.3ZM78.2 97.8C79 97.6 79.2 97 79.2 96.4 79.1 95.7 78.7 95.2 77.9 95.3 77 95.3 76.9 96 77 96.7 77 97.4 77.4 97.8 78.2 97.8ZM78.1 127.7C78.7 127.3 79.1 126.8 78.8 126.1 78.6 125.6 78.2 125.3 77.7 125.5 77 125.8 76.7 126.4 77 127.1 77.2 127.5 77.6 127.8 78.1 127.7ZM87.9 108C88.7 107.9 89 107.3 89 106.6 89 105.9 88.4 105.5 87.7 105.3 86.9 105.3 86.4 105.9 86.4 106.5 86.3 107.5 86.9 108.1 87.9 108ZM82.4 13C83.4 13.2 84 12.6 84 11.7 84 11 83.4 10.6 82.7 10.4 81.9 10.4 81.5 10.9 81.4 11.6 81.2 12.3 81.8 12.9 82.4 13ZM87.9 127.7C88.8 127.7 88.9 127.1 88.9 126.4 88.9 125.8 88.5 125.5 88 125.4 87.1 125.4 86.9 126 87 126.7 87 127.3 87.3 127.6 87.9 127.7ZM87.7 137.7C88.2 137.9 88.6 137.5 88.8 137.1 89.1 136.4 88.8 135.9 88.2 135.5 87.6 135.4 87.2 135.7 87.1 136.2 86.8 136.8 87 137.4 87.7 137.7ZM87.6 155.4C86.7 155.5 86.2 156.1 86.4 157 86.6 157.9 87.4 158.2 88.2 158.2 89 158.2 89.2 157.6 89.1 156.8 89 156.1 88.5 155.4 87.6 155.4ZM27.7 67.7C28.6 67.8 28.7 67.1 28.9 66.5 28.7 65.9 28.6 65.2 27.7 65.3 27.2 65.4 26.9 65.7 26.9 66.2 26.8 67 26.9 67.6 27.7 67.7ZM93.1 33C93.8 32.9 94.2 32.2 94 31.5 93.9 30.8 93.3 30.4 92.6 30.4 91.8 30.5 91.4 31.1 91.4 31.7 91.4 32.6 92.1 33.2 93.1 33ZM92 143.2C93.2 143.3 93.6 142.4 94 141.6 94.1 141 94 140.5 93.5 140.4 92.4 140.3 91.6 140.9 91.2 141.8 90.9 142.4 91.2 143.1 92 143.2ZM92.8 20.4C92.3 20.5 91.9 20.8 92 21.4 92.1 22.1 92.2 22.8 93.1 22.6 93.5 22.5 93.9 22.2 94.1 22.1 93.8 21 93.7 20.3 92.8 20.4ZM87.9 75.4C87.4 75.4 87 75.7 87 76.3 87 77 87.2 77.6 88 77.6 88.5 77.6 88.8 77.2 88.9 76.7 88.8 76.1 88.7 75.4 87.9 75.4ZM77.9 27.7C78.8 27.6 78.9 27 78.8 26.3 78.7 25.8 78.4 25.4 77.8 25.5 77 25.6 76.8 26.2 76.9 26.9 77 27.4 77.4 27.7 77.9 27.7ZM87.9 7.7C88.8 7.7 88.9 7.1 88.9 6.4 88.9 5.8 88.5 5.5 88 5.4 87.1 5.4 86.9 6 87 6.7 87 7.3 87.3 7.6 87.9 7.7ZM87.8 25.4C87.3 25.5 86.9 25.8 87 26.4 87.1 27.1 87.2 27.8 88.1 27.6 88.5 27.5 88.9 27.2 89.1 27.1 88.8 26 88.7 25.3 87.8 25.4ZM87.8 17.7C88.7 17.9 88.9 17.2 88.9 16.5 88.9 16.1 88.4 15.6 88.1 15.5 87.3 15.3 87 16 86.9 16.8 87.1 17 87.4 17.6 87.8 17.7ZM88.2 35.2C87.5 35.2 86.9 35.5 87 36.3 87 37 87.1 37.7 87.9 37.8 88.6 37.9 89.1 37.4 89.2 36.7 89.2 36 89 35.4 88.2 35.2ZM88 47.7C88.5 47.7 88.8 47.3 88.9 46.8 88.9 46.1 88.8 45.5 87.9 45.5 87.4 45.5 87 45.8 87 46.4 87 47 87.1 47.7 88 47.7ZM88.1 97.7C88.5 97.6 88.9 97.3 89.1 97.2 88.8 96 88.8 95.3 87.8 95.4 87.3 95.5 86.9 95.8 87 96.4 87 97.1 87.2 97.8 88.1 97.7ZM88.1 57.9C88.8 57.9 89.2 57.2 89.2 56.6 89.2 55.9 88.7 55.4 88 55.3 87.2 55.4 86.9 55.9 86.9 56.6 87 57.2 87.3 57.9 88.1 57.9ZM87.3 86.1C87.1 86.6 87.3 87 87.8 87.1 88.3 87.2 88.7 87.1 88.9 86.5 88.6 86.3 88.3 85.9 88 85.7 87.9 85.7 87.4 85.9 87.3 86.1ZM27.2 27.9C27.9 28.2 28.4 27.8 28.7 27.2 29 26.4 28.6 26 28 25.6 27.4 25.2 26.8 25.5 26.4 26.1 26 27 26.4 27.6 27.2 27.9ZM23.8 31.6C23.8 31.2 23.5 30.6 23.1 30.5 22.5 30.3 21.9 30.5 21.8 31.4 21.8 32.1 21.9 32.6 22.8 32.9 23.5 32.8 23.8 32.2 23.8 31.6ZM24.1 52.6C24.2 51.7 23.8 51.1 23 50.7 22.4 50.6 22.1 50.9 22 51.4 21.8 52.3 22.2 53 23.1 53.3 23.5 53.4 24 53.1 24.1 52.6ZM113 2.3C113.7 2.3 114.1 1.8 113.9 1.1 113.8 0.8 113.3 0.6 113 0.4 112 0.5 111.8 1.1 111.9 1.7 112 1.9 112.6 2.3 113 2.3ZM22.9 12.7C23.7 12.6 23.8 12 23.8 11.3 23.7 10.5 23.1 10.2 22.5 10.4 22.2 10.5 21.9 11.1 21.9 11.5 21.8 12.1 22 12.9 22.9 12.7ZM22.7 70.4C21.8 70.6 21.6 71.2 21.8 71.8 21.9 72.2 22.3 72.7 22.6 72.8 23.4 73 23.7 72.3 23.7 71.7 23.8 70.9 23.5 70.3 22.7 70.4ZM27.2 37.7C28.1 37.8 28.7 37.4 28.9 36.5 28.8 35.8 28.4 35.3 27.7 35.4 26.8 35.5 26.3 36 26.3 36.9 26.3 37.4 26.7 37.7 27.2 37.7ZM22.6 60.5C21.7 60.5 21.2 61.1 21.4 62.1 21.5 62.8 22.1 63.1 22.8 63.1 23.5 63 23.9 62.4 23.9 61.8 23.8 61 23.2 60.4 22.6 60.5ZM22.9 3C23.6 2.8 23.9 2.3 23.9 1.6 23.7 0.9 23.2 0.5 22.6 0.5 21.9 0.5 21.4 1.2 21.4 1.7 21.3 2.5 21.8 3.2 22.9 3ZM21.3 41.7C21.3 42.3 21.6 43 22.4 43 23.4 43.1 23.9 42.5 23.8 41.6 23.7 40.9 23.1 40.6 22.5 40.4 21.8 40.5 21.3 41 21.3 41.7ZM22.7 20.5C21.7 20.4 21.3 21.1 21.3 21.9 21.3 22.6 21.9 23 22.6 23 23.3 23 23.7 22.5 23.9 21.8 23.7 21.2 23.4 20.6 22.7 20.5ZM18.1 35.4C17.5 35.2 16.9 35.4 16.8 36.3 16.8 37 16.9 37.6 17.6 37.7 18.2 37.8 18.4 37.4 18.6 37 18.9 36.3 18.7 35.7 18.1 35.4ZM17.7 25.3C16.9 25.4 16.9 26.1 16.9 26.8 16.9 27.5 17.3 28 18.1 27.9 18.9 27.8 19.1 27.1 19.1 26.4 19 25.7 18.6 25.3 17.7 25.3ZM22.7 83.1C23.6 83.1 24.1 82.5 24.2 81.5 23.9 80.7 23.3 80.2 22.4 80.3 21.5 80.4 20.8 80.9 20.9 81.8 21 82.7 21.8 83.1 22.7 83.1ZM17.7 7.7C18.6 7.8 18.7 7.1 18.8 6.5 18.6 5.9 18.4 5.2 17.6 5.3 17.1 5.4 16.8 5.7 16.8 6.2 16.8 7 16.9 7.6 17.7 7.7ZM17.6 17.2C18.2 17.3 18.5 17 18.6 16.5 18.8 15.8 18.3 15.6 17.8 15.5 17.2 15.3 16.9 15.8 16.8 16.2 16.7 16.8 17.1 17.1 17.6 17.2ZM18.8 76.6C18.6 76 18.4 75.3 17.6 75.4 17.1 75.5 16.8 75.8 16.8 76.3 16.8 77 16.9 77.6 17.7 77.7 18.5 77.9 18.6 77.2 18.8 76.6ZM17.9 95.3C17.4 95.4 17 95.7 17.1 96.3 17.2 97.1 17.8 97.3 18.5 97.2 19 97.1 19.3 96.8 19.3 96.4 19.1 95.4 18.6 95.2 17.9 95.3ZM17.6 85.6C17 85.6 16.8 86.1 16.9 86.6 17 87.5 17.3 88.2 18.3 88.2 18.8 88.2 19.2 87.9 19 87 18.9 86.4 18.6 85.6 17.6 85.6ZM33.1 70.5C32.5 70.3 31.8 70.5 31.8 71.4 31.8 72.1 31.9 72.6 32.7 72.9 33.5 73 33.8 72.3 33.8 71.7 33.8 71.2 33.5 70.6 33.1 70.5ZM31.4 52.1C31.6 52.7 32.1 53.1 32.9 52.9 33.6 52.7 33.9 52.2 33.9 51.5 33.7 50.8 33.2 50.3 32.6 50.4 31.7 50.6 31.1 51.2 31.4 52.1ZM33.8 41.6C33.8 41.2 33.5 40.6 33.1 40.5 32.5 40.3 31.8 40.5 31.8 41.4 31.8 42.1 31.9 42.6 32.7 42.9 33.5 42.8 33.8 42.2 33.8 41.6ZM27.4 17.7C28 17.9 28.6 17.6 28.7 16.8 28.8 16.1 28.6 15.6 27.7 15.4 27 15.3 26.7 16 26.8 16.6 26.8 17 27.1 17.6 27.4 17.7ZM32.8 3C33.5 2.9 33.8 2.3 33.9 1.7 33.7 1 33.2 0.4 32.6 0.5 31.8 0.5 31.2 1.2 31.4 2.1 31.5 2.7 32.1 3.1 32.8 3ZM33.9 21.6C33.7 21 33.5 20.3 32.7 20.4 32.2 20.5 31.9 20.8 31.9 21.3 31.9 22 32 22.6 32.8 22.7 33.5 22.9 33.7 22.2 33.9 21.6ZM37.9 77.9C38.6 77.8 38.9 77.2 38.9 76.5 38.7 75.8 38.2 75.4 37.6 75.4 36.9 75.4 36.4 76 36.4 76.6 36.3 77.5 36.9 78.1 37.9 77.9ZM32.8 90.3C31.8 90.1 31.3 90.8 31.1 91.6 31 92.3 31.5 92.8 32.2 92.8 33 92.8 33.7 92.4 33.9 91.5 33.9 90.8 33.5 90.4 32.8 90.3ZM37.6 88.1C38.6 88.1 39 87.5 39.2 86.6 39 85.7 38.4 85.2 37.5 85.2 36.6 85.2 35.9 85.8 35.9 86.7 36 87.6 36.7 88.1 37.6 88.1ZM32.6 30.4C31.8 30.4 31.2 31.1 31.4 32 31.6 32.7 32.1 33 32.8 32.9 33.5 32.8 33.8 32.2 33.9 31.6 33.7 30.9 33.2 30.4 32.6 30.4ZM32.2 12.9C32.9 13.2 33.4 12.8 33.7 12.2 34 11.4 33.6 11 33 10.6 32.4 10.2 31.8 10.5 31.4 11.1 31 12 31.4 12.6 32.2 12.9ZM28.1 55.3C27.4 55.2 26.9 55.6 26.9 56.4 26.9 57 26.9 57.7 27.7 57.9 28.5 57.9 29 57.5 29 56.8 29.1 56.1 28.9 55.4 28.1 55.3ZM32.2 123.2C33.2 123 33.8 122.2 34 121.1 34 120.6 33.8 120.1 33.2 120.2 32.2 120.4 31.4 121 31.1 122 30.9 122.9 31.5 123.4 32.2 123.2ZM28.7 6.5C28.5 6 28.2 5.7 27.7 5.9 27.5 5.9 27.2 6.5 27.3 6.5 27.6 6.8 27.9 7 28.3 7.2 28.4 6.9 28.5 6.7 28.7 6.5ZM27.9 47.7C28.7 47.6 28.8 47 28.8 46.3 28.7 45.5 28.1 45.2 27.5 45.4 27.2 45.5 26.9 46.1 26.9 46.5 26.8 47.1 27 47.9 27.9 47.7ZM32.4 63C33.4 63.1 33.9 62.6 33.8 61.6 33.7 60.9 33.1 60.6 32.5 60.4 31.8 60.5 31.3 61 31.3 61.7 31.3 62.3 31.7 62.9 32.4 63ZM32.5 83.2C33.4 83 33.9 82.5 33.8 81.6 33.7 80.9 33.3 80.3 32.6 80.4 31.5 80.5 30.9 81.2 31 82.3 31.2 83.1 31.9 83.2 32.5 83.2ZM17.8 48C18.6 47.9 18.8 47.3 18.9 46.7 18.7 46 18.2 45.5 17.6 45.5 16.9 45.5 16.3 46.1 16.3 46.7 16.2 47.5 16.8 48.1 17.8 48ZM2.3 13C3.3 13.1 3.8 12.5 3.7 11.6 3.6 10.9 3 10.6 2.4 10.4 1.7 10.6 1.2 11.1 1.1 11.7 1.2 12.3 1.6 12.9 2.3 13ZM18.1 55.4C17.5 55.2 16.9 55.4 16.8 56.3 16.8 57 16.9 57.6 17.6 57.7 18.2 57.8 18.4 57.4 18.6 57 18.9 56.3 18.7 55.7 18.1 55.4ZM7.6 8C8.3 8 8.7 7.5 8.9 6.8 8.8 6.2 8.5 5.5 7.8 5.5 6.8 5.4 6.3 6.1 6.3 6.9 6.3 7.5 6.9 8 7.6 8ZM7.2 27.9C7.9 28.2 8.4 27.8 8.8 27 9 26.4 8.6 25.9 8.1 25.5 7.4 25.1 6.9 25.4 6.5 26 5.9 27 6.4 27.6 7.2 27.9ZM8.8 36C8.7 35.6 8.3 35.2 7.8 35.4 7.3 35.5 7 35.7 7 36.3 7 36.8 7.3 37.1 7.8 37.2 8.6 37.2 8.9 36.7 8.8 36ZM8.2 15.4C7.6 15.2 6.9 15.5 6.9 16.3 6.9 17 7 17.6 7.7 17.8 8.6 17.8 8.8 17.2 8.8 16.6 8.9 16.1 8.6 15.5 8.2 15.4ZM7.6 75.4C6.7 75.4 6.1 76 6.3 76.9 6.4 77.6 7 78 7.7 78 8.4 77.9 8.7 77.4 8.9 76.7 8.7 76 8.3 75.4 7.6 75.4ZM7.8 67.7C8.5 67.5 8.8 67 8.7 66.3 8.6 65.5 7.9 65.2 7.4 65.4 6.8 65.6 6.6 66.3 6.9 67 7 67.4 7.2 67.9 7.8 67.7ZM7.6 55.4C6.7 55.4 6.1 56 6.3 56.9 6.4 57.6 7 58 7.7 57.9 8.4 57.8 8.7 57.3 8.9 56.6 8.7 56 8.3 55.4 7.6 55.4ZM1.8 41.8C1.8 42.3 2.1 42.7 2.6 42.8 3.4 42.9 3.8 42.3 3.8 41.6 3.8 41 3.5 40.4 2.7 40.4 1.8 40.5 1.7 41.1 1.8 41.8ZM2.6 3C3.3 3 3.8 2.4 3.8 1.8 3.8 1.2 3.3 0.6 2.8 0.5 1.9 0.4 1.4 0.9 1.3 1.5 1.1 2.5 1.8 2.9 2.6 3ZM2.3 53C3.3 53.1 3.8 52.5 3.7 51.6 3.6 50.9 3 50.6 2.4 50.4 1.7 50.6 1.2 51.1 1.1 51.7 1.2 52.3 1.6 52.9 2.3 53ZM37.7 67.8C38.6 67.9 38.7 67.2 38.9 66.6 38.7 66 38.5 65.3 37.7 65.4 37.2 65.5 36.9 65.8 36.9 66.3 36.8 67 36.9 67.6 37.7 67.8ZM2.4 63.1C3.3 63.2 4.1 62.7 4.1 61.8 4.2 60.9 3.5 60.3 2.6 60.2 1.7 60.1 1.1 60.5 0.8 61.4 0.9 62.5 1.5 63 2.4 63.1ZM7.7 128.1C8.6 128 9.2 127.5 9.1 126.5 8.9 125.6 8.2 125.3 7.3 125.2 6.4 125.4 5.8 125.8 5.9 126.8 6.1 127.8 6.9 128.2 7.7 128.1ZM2.6 30.4C2.1 30.5 1.8 30.8 1.8 31.3 1.8 31.9 1.8 32.6 2.6 32.7 3.4 32.8 3.6 32.1 3.8 31.5 3.6 30.9 3.4 30.3 2.6 30.4ZM7.6 85.4C7.1 85.4 6.8 85.8 6.8 86.3 6.8 86.9 6.8 87.5 7.6 87.7 8.4 87.7 8.7 87.1 8.8 86.5 8.8 85.9 8.4 85.3 7.6 85.4ZM2.5 20.4C1.8 20.4 1.2 21 1.2 21.6 1.2 22.5 1.7 23.1 2.7 23 3.4 22.9 3.7 22.3 3.8 21.7 3.6 20.9 3.2 20.4 2.5 20.4ZM7.4 45.8C7.3 45.8 7.1 46.5 7.1 46.5 7.4 46.7 7.8 47 8.2 47 8.6 47 8.7 46.7 8.4 46.1 8.2 46.1 7.8 45.9 7.4 45.8ZM17.1 148.2C18.3 148 18.7 147.3 18.8 146.2 18.6 145.7 18.5 145.1 17.8 145.5 17 145.9 15.8 146.1 16 147.4 16.1 147.9 16.5 148.2 17.1 148.2ZM17.6 117.8C18.5 117.9 18.7 117.2 18.7 116.6 18.7 116.2 18.4 115.6 18 115.5 17.4 115.3 16.8 115.5 16.7 116.4 16.8 117 16.9 117.5 17.6 117.8ZM12.8 20.3C11.9 20.4 11.9 21.1 11.9 21.8 11.9 22.5 12.2 23 13.1 22.9 13.9 22.8 14.1 22.1 14.1 21.5 14 20.7 13.5 20.3 12.8 20.3ZM12.4 2.7C13 2.9 13.6 2.6 13.7 1.8 13.8 1.1 13.6 0.6 12.7 0.4 11.9 0.3 11.7 1 11.8 1.6 11.8 1.9 12.1 2.6 12.4 2.7ZM17.7 135.4C17 135.3 16.7 136 16.8 136.6 16.8 137 17.1 137.7 17.4 137.8 18 138 18.6 137.7 18.7 136.9 18.8 136.1 18.6 135.6 17.7 135.4ZM17.4 68C18.4 68.1 18.9 67.5 18.8 66.6 18.7 65.9 18.1 65.6 17.5 65.4 16.8 65.5 16.3 66 16.3 66.7 16.2 67.3 16.6 67.9 17.4 68ZM17.2 107.9C17.9 108.2 18.4 107.8 18.7 107.2 19 106.4 18.6 106 18 105.6 17.4 105.2 16.8 105.5 16.4 106.1 15.9 107 16.4 107.6 17.2 107.9ZM17.7 125.4C16.9 125.3 16.7 126 16.8 126.6 16.8 127 17.1 127.7 17.4 127.8 18 128 18.6 127.7 18.7 126.9 18.8 126.1 18.6 125.6 17.7 125.4ZM12.2 52.9C12.9 53.2 13.4 52.8 13.7 52.2 14 51.4 13.6 51 13 50.6 12.4 50.2 11.8 50.5 11.4 51.1 10.9 52 11.4 52.6 12.2 52.9ZM6.8 116.6C6.8 117 7.1 117.7 7.4 117.8 8 117.9 8.6 117.6 8.8 116.9 8.9 116.2 8.7 115.7 7.8 115.5 6.9 115.3 6.8 115.9 6.8 116.6ZM11.9 133.2C13 133.2 13.5 132.4 13.8 131.4 13.9 130.8 13.6 130.3 13.1 130.4 12.1 130.6 11.2 130.9 11 132.1 10.9 132.8 11.3 133 11.9 133.2ZM8.6 106.7C8.6 106.1 8.3 105.8 7.8 105.8 7.6 105.8 7.2 106 7.2 106.3 7 106.9 7.5 107.1 8 107.1 8.2 107.1 8.4 106.8 8.6 106.7ZM13 63.3C14 63.4 14.5 62.7 14.4 61.8 14.3 61 13.9 60.2 12.9 60.2 12 60.3 11.2 60.8 11.2 61.6 11 62.7 12 63.2 13 63.3ZM7.6 95.4C6.8 95.5 6.7 96.1 6.8 96.8 6.8 97.3 7.1 97.7 7.6 97.8 8.4 97.9 8.8 97.3 8.8 96.6 8.8 95.9 8.4 95.4 7.6 95.4ZM12.7 33C13.5 32.9 13.8 32.3 13.8 31.7 13.8 31 13.2 30.4 12.5 30.5 11.7 30.5 11 31.1 11.2 32.1 11.5 32.7 12 33 12.7 33ZM12.4 12.7C13 12.9 13.6 12.6 13.7 11.8 13.8 11.1 13.6 10.6 12.7 10.4 11.9 10.3 11.7 11 11.8 11.6 11.8 11.9 12.1 12.6 12.4 12.7ZM12.2 42.9C12.9 43.2 13.4 42.8 13.7 42.2 14 41.4 13.6 41 13 40.6 12.4 40.2 11.8 40.5 11.4 41.1 10.9 42 11.4 42.6 12.2 42.9ZM38.5 135.2C37.4 134.8 36.6 135.4 36.3 136.4 36 137.3 36.9 137.8 37.6 138.1 38.5 138.4 39.2 138.1 39.4 137 39.5 136.4 39.3 135.5 38.5 135.2ZM42.8 120.3C42 120.4 41.9 121.1 41.9 121.7 41.9 122.4 42.3 122.9 43.1 122.8 43.9 122.7 44 122 44.1 121.4 44 120.6 43.6 120.2 42.8 120.3ZM41.3 151.7C41.3 152.3 41.7 152.9 42.4 153 43.4 153.1 43.9 152.6 43.8 151.6 43.8 150.9 43.1 150.6 42.5 150.4 41.8 150.6 41.3 151.1 41.3 151.7ZM42.5 143C43.2 143 43.7 142.6 43.8 141.9 43.8 141.2 43.4 140.7 42.8 140.5 41.8 140.3 41.3 141 41.3 141.8 41.3 142.4 41.9 143 42.5 143ZM47.8 58C48.6 58 48.8 57.3 48.9 56.6 48.7 55.9 48.2 55.4 47.5 55.5 46.7 55.5 46.4 56.2 46.4 56.9 46.4 57.6 47 58 47.8 58ZM41.8 41.8C41.8 42.3 42.1 42.7 42.6 42.8 43.4 42.9 43.8 42.3 43.8 41.6 43.8 41 43.5 40.4 43.7 40.4 41.8 40.5 41.8 41.1 41.8 41.8ZM42.7 60.4C42.2 60.5 41.9 60.8 41.8 61.3 41.8 62 41.9 62.6 42.7 62.7 43.6 62.8 43.7 62.1 43.9 61.5 43.7 61 43.5 60.3 42.7 60.4ZM42.8 30.5C41.8 30.3 41.3 31 41.3 31.8 41.3 32.4 41.9 33 42.5 33 43.2 33 43.7 32.6 43.8 31.9 43.8 31.2 43.5 30.7 42.8 30.5ZM42.7 50.3C41.9 50.4 41.8 51.1 41.9 51.7 41.9 52.4 42.3 52.9 43.1 52.8 43.9 52.7 44.1 52 44.1 51.4 44 50.7 43.6 50.2 42.7 50.3ZM47.7 77.7C48.5 77.9 48.8 77.2 48.8 76.6 48.8 76.2 48.4 75.6 48.1 75.5 47.5 75.3 46.9 75.5 46.7 76.8 46.7 77 47 77.6 47.7 77.7ZM47.9 67.7C48.7 67.6 48.9 67 48.8 66.3 48.7 65.5 48.1 65.2 47.5 65.4 47.2 65.5 46.8 66.1 46.9 66.5 46.8 67.1 47.1 67.8 47.9 67.7ZM47.5 117.7C48.1 117.9 48.7 117.6 48.8 116.8 48.9 116.1 48.6 115.6 47.9 115.4 47.3 115.2 47 115.6 46.9 116.1 46.6 116.8 46.9 117.4 47.5 117.7ZM47.5 47.7C48.1 47.9 48.7 47.6 48.8 46.8 48.9 46.1 48.6 45.6 47.9 45.4 47.3 45.2 47 45.6 46.9 46.1 46.6 46.8 46.9 47.4 47.5 47.7ZM47.9 135.5C47.3 135.3 47 135.7 46.9 136.2 46.7 136.8 47.2 137.1 47.6 137.2 48.2 137.3 48.5 137 48.4 137.3 48.8 135.8 48.3 135.6 47.9 135.5ZM48.1 35.5C47.5 35.3 46.9 35.5 46.8 36.4 46.7 37.1 46.9 37.6 47.7 37.8 48.3 37.9 48.5 37.5 48.8 37.1 49 36.3 48.7 35.7 48.1 35.5ZM47.7 147.7C48.3 147.8 48.5 147.4 48.8 147 49.1 146.3 48.8 145.7 48.2 145.4 47.6 145.2 47 145.4 46.9 146.3 46.8 147 47 147.5 47.7 147.7ZM47.8 25.4C46.9 25.5 46.7 26.1 46.9 26.8 47 27.2 47.4 27.6 47.7 27.7 48.5 27.9 48.8 27.2 48.8 26.6 48.9 25.9 48.5 25.4 47.8 25.4ZM48.1 85.3C47.3 85.3 46.9 85.6 46.9 86.4 46.9 87.1 47 87.8 47.8 87.9 48.6 88 49 87.5 49.1 86.8 49.2 86.1 48.9 85.4 48.1 85.3ZM47.7 97.7C48.6 97.8 48.7 97.1 48.9 96.5 48.7 96 48.5 95.3 47.7 95.4 47.2 95.5 46.9 95.7 46.8 96.3 46.8 97 46.9 97.6 47.7 97.7ZM32.9 132.7C33.7 132.6 33.9 132 33.8 131.3 33.7 130.5 33.1 130.2 32.4 130.4 32.1 130.5 31.8 131.1 31.8 131.5 31.8 132.1 32 132.9 32.9 132.7ZM32.4 112.8C33.2 112.8 34 112.4 34 111.4 34 110.7 33.4 110.3 32.7 110.3 31.7 110.3 31.3 110.9 31.2 111.7 31.1 112.5 31.7 112.8 32.4 112.8ZM32.4 142.7C33 142.9 33.6 142.6 33.7 141.8 33.8 141.1 33.6 140.6 32.6 140.3 32 140.3 31.7 140.9 31.7 141.5 31.8 142 32.1 142.6 32.4 142.7ZM33.8 102.2C34.1 101.4 33.7 101 33.1 100.6 32.5 100.2 31.9 100.5 31.5 101.1 31 102 31.4 102.6 32.2 102.9 32.9 103.2 33.4 102.8 33.8 102.2ZM32.7 160.3C32.1 160.3 31.8 160.9 31.8 161.5 31.8 161.9 32.1 162.6 32.4 162.7 33 162.9 33.6 162.6 33.7 161.8 33.9 161.1 33.6 160.6 32.7 160.3ZM42.7 70.4C42.2 70.5 41.9 70.8 41.8 71.3 41.8 72 41.9 72.6 42.7 72.7 43.6 72.8 43.7 72.1 43.9 71.5 43.7 71 43.5 70.3 42.7 70.4ZM37.8 165.4C37 165.3 36.8 165.9 36.8 166.6 36.8 167 37.1 167.7 37.4 167.8 38 168 38.6 167.7 38.7 166.9 38.9 166.1 38.7 165.6 37.8 165.4ZM32.4 150.5C31.7 150.5 31.3 151.2 31.3 151.8 31.3 152.4 31.8 152.9 32.5 153 33.2 152.9 33.8 152.6 33.8 151.9 33.9 151 33.3 150.5 32.4 150.5ZM28.1 95.5C27.5 95.3 26.9 95.5 26.8 96.4 26.8 97.1 26.9 97.6 27.6 97.9 28.5 98 28.7 97.3 28.7 96.7 28.8 96.2 28.4 95.6 28.1 95.5ZM42.7 133C43.4 133 43.7 132.4 43.9 131.7 43.7 131 43.3 130.5 42.7 130.5 41.8 130.5 41.3 131.1 41.4 132 41.5 132.7 42 133 42.7 133ZM38.7 156.7C38.6 156.4 38.5 156.1 38.3 155.9 37.9 155.6 37.4 155.8 37.3 156.3 37.2 156.5 37.4 156.9 37.6 157 38 157.2 38.4 157.2 38.7 156.7ZM42.6 80.5C41.7 80.5 41.2 81.1 41.4 82 41.5 82.7 42.1 83 42.8 83 43.5 82.9 43.9 82.3 43.9 81.7 43.8 81 43.2 80.5 42.6 80.5ZM42.7 112.8C43.6 112.9 43.7 112.2 43.9 111.6 43.7 111 43.5 110.3 42.7 110.4 42.2 110.5 41.9 110.8 41.8 111.3 41.8 112 41.9 112.6 42.7 112.8ZM42.5 100.4C42.2 100.5 41.8 101.1 41.9 101.5 41.9 102.1 42.1 102.8 43 102.7 43.7 102.6 44 102 43.9 101.3 43.7 100.6 43.1 100.3 42.5 100.4ZM38.5 145.3C37.2 145.2 36.3 145.9 36.1 147.2 36 147.7 36.4 148.1 37 148.2 38.2 148.3 38.6 147.4 39 146.5 39.1 146 39 145.4 38.5 145.3ZM43.1 90.5C42.5 90.3 41.8 90.5 41.8 91.4 41.7 92.1 41.9 92.6 42.7 92.8 43.5 92.9 43.8 92.2 43.9 91.6 43.8 91.2 43.5 90.6 43.1 90.5ZM42.7 160.2C41.7 160.2 41.1 160.8 41.3 161.8 41.4 162.5 42 162.9 42.8 162.7 43.4 162.5 44 162.2 44 161.4 43.9 160.6 43.4 160.2 42.7 160.2ZM52.9 2.7C53.6 2.6 53.9 2 53.8 1.3 53.7 0.5 53.1 0.2 52.5 0.4 52.2 0.5 51.8 1.1 51.8 1.5 51.8 2.1 52.1 2.8 52.9 2.7ZM43.3 20.1C42.2 19.9 41.3 20.6 41.2 21.6 41.1 22.4 41.9 23 42.8 23.2 43.8 23.4 44.3 22.9 44.4 22 44.6 21 44.1 20.3 43.3 20.1ZM42.8 3.2C43.8 3.4 44.3 2.8 44.4 1.9 44.5 0.8 44 0 42.7 0.1 41.8 0.2 41.4 0.9 41.1 1.7 41.4 2.5 42 3.1 42.8 3.2ZM42.8 13C43.5 12.9 43.8 12.3 43.9 11.7 43.7 11 43.2 10.5 42.6 10.5 41.8 10.6 41.2 11.1 41.4 12.1 41.5 12.7 42.1 13.1 42.8 13ZM48.1 155.7C47.9 155.7 47.4 155.8 47.3 156 47 156.5 47.2 156.9 47.7 157.1 48.2 157.3 48.6 157.2 48.9 156.8 48.9 156.1 48.6 155.8 48.1 155.7ZM47.8 18.3C48.5 18.4 49.1 18.3 49.2 17.4 49.2 16.5 48.9 15.8 48 15.5 47 15.1 46.4 15.9 46.3 16.7 46.3 17.5 47 18.1 47.8 18.3ZM47.8 105.4C46.8 105.3 46.3 106 46.4 106.9 46.5 107.8 47.2 108.3 48.1 108.3 48.8 108.3 49.3 108 49.2 107.1 49 106.4 48.7 105.6 47.8 105.4ZM47.7 7.7C48.5 7.9 48.8 7.2 48.8 6.6 48.8 6.2 48.4 5.6 48.1 5.5 47.5 5.3 46.9 5.5 46.7 6.8 46.7 7 47 7.6 47.7 7.7ZM36.4 107C36.6 107.7 37.1 108 37.8 107.9 38.5 107.8 38.8 107.2 38.9 106.6 38.7 105.9 38.2 105.4 37.6 105.4 36.7 105.5 36.1 106.1 36.4 107ZM38.7 97C39 96.3 38.7 95.7 38.1 95.4 37.5 95.2 36.9 95.4 36.8 96.3 36.7 97 36.9 97.6 37.7 97.7 38.3 97.9 38.5 97.5 38.7 97ZM37.8 45.4C37 45.3 36.8 45.9 36.8 46.6 36.8 47 37.1 47.7 37.4 47.8 38 48 38.6 47.7 38.7 46.9 38.9 46.1 38.7 45.6 37.8 45.4ZM37.7 18C38.5 18 38.7 17.4 38.9 16.7 38.7 16 38.3 15.5 37.7 15.5 36.8 15.5 36.3 16.1 36.4 17 36.5 17.7 37 18 37.7 18ZM38.1 55.5C37.5 55.3 36.9 55.5 36.8 56.4 36.7 57.1 36.9 57.7 37.7 57.8 38.3 57.9 38.5 57.5 38.8 57.1 39 56.3 38.7 55.7 38.1 55.5ZM37.4 37.7C38 37.9 38.6 37.6 38.7 36.8 38.8 36.1 38.5 35.6 37.8 35.4 37.2 35.2 36.9 35.7 36.8 36.1 36.6 36.8 36.9 37.5 37.4 37.7ZM52.8 113.2C53.8 113.4 54.3 112.9 54.4 112.2 54.5 111 54.1 110.3 53.3 110.1 52.2 109.9 51.3 110.6 51.2 111.6 51.2 112.5 51.9 113.1 52.8 113.2ZM38 7.2C38.7 7.2 39.3 7 39.3 6.2 39.3 5.7 38.9 5.4 38.4 5.3 37.7 5.3 37.1 5.5 37.2 6.3 37.1 6.8 37.4 7.2 38 7.2ZM37.7 118C38.4 118 38.9 117.4 38.9 116.8 38.9 116.2 38.4 115.7 37.7 115.5 37 115.5 36.5 115.9 36.4 116.5 36.2 117.5 36.8 117.9 37.7 118ZM38.1 125.5C37.5 125.3 36.9 125.5 36.8 126.4 36.7 127.1 36.9 127.6 37.8 127.9 38.5 127.9 38.8 127.3 38.8 126.7 38.8 126.2 38.5 125.6 38.1 125.5ZM27.7 87.7C28.6 87.8 28.7 87.1 28.8 86.5 28.6 85.9 28.4 85.2 27.6 85.3 27.1 85.4 26.8 85.7 26.8 86.2 26.8 87 26.9 87.6 27.7 87.7ZM51.9 131.3C51.9 131.7 52.1 132.3 52.4 132.5 53 133 53.5 132.7 53.8 132 54.1 131.3 53.8 130.7 53.2 130.4 52.5 130.2 51.9 130.5 51.9 131.3ZM52.9 92.7C53.6 92.6 53.9 92 53.8 91.2 53.7 90.6 53.1 90.3 52.5 90.4 52.2 90.5 51.8 91.1 51.8 91.5 51.8 92.2 52.1 92.9 52.9 92.7ZM52.5 120.5C52.2 120.6 51.9 121.2 51.9 121.6 51.9 122.2 52.2 122.8 53 122.8 53.7 122.6 54 122.1 53.9 121.4 53.7 120.5 53.1 120.3 52.5 120.5ZM53 102.2C53.5 102.2 54 102 53.8 101.4 53.7 101.1 53.4 100.9 53.2 100.8 52.7 100.6 52.3 100.8 52.2 101.4 52.1 101.9 52.6 102.1 53 102.2ZM52.4 140.4C51.7 140.7 51.3 141.2 51.4 141.9 51.5 142.8 52.3 143.3 53.2 143 53.9 142.8 54.3 142.2 54 141.5 53.7 140.8 53.1 140.4 52.4 140.4ZM52.9 42.7C53.6 42.5 54.1 42.1 54 41.4 53.8 40.5 53.2 40.1 52.5 40.3 51.6 40.5 51 41.1 51.3 42 51.5 42.7 52.2 42.9 52.9 42.7ZM53 150.5C51.9 150.1 51.4 150.8 51.3 151.7 51.2 152.4 51.8 152.9 52.4 153.1 53.3 153.2 53.8 152.8 53.9 152.1 54.1 151.3 53.7 150.8 53 150.5ZM53 160.5C51.9 160.1 51.4 160.8 51.3 161.7 51.2 162.4 51.8 162.9 52.4 163.1 53.3 163.2 53.8 162.8 53.9 162.1 54.1 161.3 53.7 160.8 53 160.5ZM47.7 125.4C47.2 125.5 46.9 125.7 46.8 126.3 46.8 127 46.9 127.6 47.7 127.7 48.6 127.8 48.7 127.1 48.9 126.5 48.7 125.9 48.5 125.3 47.7 125.4ZM37.9 27.7C38.6 27.6 38.9 27 38.8 26.3 38.7 25.5 38.1 25.2 37.5 25.4 37.2 25.5 36.9 26.1 36.9 26.5 36.8 27.1 37 27.9 37.9 27.7ZM52.7 80.4C51.9 80.4 51.5 80.9 51.4 81.6 51.3 82.3 51.8 82.9 52.4 83 53.4 83.2 54 82.6 54 81.6 54 80.9 53.3 80.6 52.7 80.4ZM52.7 22.7C53.6 22.8 53.7 22.1 53.9 21.6 53.7 21 53.5 20.3 52.7 20.4 52.2 20.5 51.9 20.7 51.8 21.3 51.8 22 52 22.6 52.7 22.7ZM52.3 13C53.3 13.3 54 12.7 54 11.8 54 11.1 53.4 10.7 52.8 10.5 51.9 10.3 51.6 10.9 51.4 11.6 51.2 12.2 51.6 12.8 52.3 13ZM52.8 32.8C53.6 32.9 54 32.4 54.1 31.6 54 31.1 53.9 30.3 53.1 30.3 52.3 30.2 51.9 30.6 51.9 31.4 51.9 32 52 32.8 52.8 32.8ZM52.8 50.5C51.7 50.2 51.3 51.1 51.3 51.9 51.3 52.6 51.9 53.1 52.6 53.1 53.4 53.1 53.8 52.6 53.9 51.9 53.9 51.1 53.5 50.6 52.8 50.5ZM52.8 60.4C52.2 60.4 51.8 60.9 51.9 61.6 51.9 62 52.2 62.6 52.6 62.7 53.2 62.9 53.8 62.6 53.9 61.8 53.9 61.1 53.7 60.6 52.8 60.4ZM52.7 70.4C51.6 70.3 51.2 71.1 51.4 71.9 51.5 72.6 52 73.1 52.8 73 53.5 72.9 53.9 72.4 54 71.7 53.9 71 53.4 70.5 52.7 70.4ZM47.7 165.5C46.9 165.4 46.4 165.9 46.3 166.6 46.2 167.3 46.6 167.9 47.4 168 48.2 168.1 48.7 167.7 48.8 166.9 48.9 166.2 48.5 165.7 47.7 165.5ZM118 105.4C117.1 105.4 116.9 106 117 106.7 117 107.3 117.4 107.6 117.9 107.7 118.7 107.7 118.8 107.2 118.8 107.2 118.9 105.8 118.5 105.5 118 105.4ZM117.1 86.7C117.2 87.4 117.5 88 118.3 87.9 119 87.8 119.2 87.1 119.2 86.4 119.1 85.7 118.7 85.2 118 85.3 117.2 85.4 117.1 86.1 117.1 86.7ZM123.3 123C124 122.8 124.3 122.2 124.1 121.4 123.9 120.7 123.3 120.3 122.6 120.4 121.9 120.6 121.4 121.2 121.5 121.8 121.6 122.7 122.3 123.3 123.3 123ZM108.2 87.7C108.8 87.4 109.1 86.8 108.8 86.1 108.6 85.6 108.2 85.3 107.7 85.4 107 85.8 106.8 86.3 107.1 87 107.2 87.5 107.7 87.9 108.2 87.7ZM119.1 96.5C119 95.8 118.5 95.4 117.7 95.4 116.9 95.5 116.5 96.1 116.5 96.7 116.5 97.4 117 98 117.8 98 118.7 98.1 119.2 97.4 119.1 96.5ZM107.7 145.4C106.7 145.4 106.2 146.1 106.5 147 106.7 147.7 107.3 148.1 108 148 108.7 147.9 109 147.3 109.1 146.6 108.9 145.9 108.4 145.4 107.7 145.4ZM113 160.4C112.4 160.4 112.1 160.7 112 161.2 111.9 161.9 112.1 162.5 112.9 162.7 113.5 162.8 113.8 162.4 113.9 161.9 114 161.2 113.8 160.6 113 160.4ZM113 150.4C111.9 150.1 111.4 150.9 111.4 151.8 111.4 152.5 112 153 112.7 153 113.5 153.1 113.9 152.6 114.1 151.9 114.1 151.2 113.7 150.6 113 150.4ZM113.9 141.9C114 141.2 113.9 140.6 113 140.5 112.4 140.5 112.1 140.8 112 141.3 111.9 142 112.1 142.6 112.9 142.8 113.5 142.8 113.8 142.4 113.9 141.9ZM118.8 107.2C118.8 107.3 118.8 107.3 118.8 107.2 118.8 107.2 118.8 107.2 118.8 107.2ZM123.1 100.4C122.2 100.3 121.9 100.9 122 101.6 122 102 122.5 102.5 122.8 102.6 123.7 102.9 123.8 102 123.9 101.4 123.9 100.9 123.6 100.5 123.1 100.4ZM122.8 90.4C121.8 90.5 121.3 91.1 121.6 92.1 121.8 92.8 122.4 93.2 123.1 93.1 123.8 93 124.1 92.4 124.2 91.7 123.9 90.9 123.5 90.4 122.8 90.4ZM117.6 115.2C117.5 115.3 117.2 115.7 117.1 116.1 116.9 117 117.6 117.2 118.2 117.2 118.6 117.2 119.1 116.7 119.2 116.4 119.4 115.5 118.7 115.4 117.6 115.2ZM121.5 112.1C121.7 112.8 122.3 113.2 123 113.1 123.7 113 124 112.4 124.1 111.7 123.9 111 123.5 110.5 122.7 110.5 121.8 110.5 121.2 111.1 121.5 112.1ZM118.2 145.5C117.7 145.3 117.2 145.6 117.1 146.1 116.8 146.8 117.1 147.4 117.8 147.7 118.4 147.9 118.7 147.5 118.9 147 119.1 146.3 118.8 145.7 118.2 145.5ZM118 155.7C117.4 155.8 117.2 156.2 117.3 156.7 117.4 156.9 117.8 157.2 118 157.2 118.5 157.3 119 157.1 118.9 156.5 118.9 156 118.5 155.7 118 155.7ZM117.9 137.7C118.5 137.8 118.8 137.4 118.9 136.9 119 136.2 118.9 135.6 118 135.5 117.4 135.5 117.1 135.8 117 136.3 116.9 137 117.1 137.6 117.9 137.7ZM117.8 125.4C117.3 125.5 116.9 125.9 117 126.4 117.1 127.1 117.3 127.8 118.1 127.6 118.5 127.5 118.7 127 119 126.7 118.8 126 118.7 125.3 117.8 125.4ZM117.8 75.4C117 75.3 116.5 75.9 116.5 76.6 116.5 77.5 117.1 78.2 118.1 78.1 118.8 78 119.1 77.4 119.2 76.7 119 75.9 118.5 75.4 117.8 75.4ZM97.8 105.4C97 105.3 96.5 105.8 96.4 106.5 96.3 107.5 96.9 108 97.8 108 98.5 108 98.9 107.4 99 106.7 98.9 106 98.5 105.5 97.8 105.4ZM97.8 97.6C98.7 97.8 98.8 97 98.9 96.5 98.9 95.9 98.6 95.5 98.1 95.4 97.2 95.3 96.9 95.9 97 96.6 97 97 97.4 97.6 97.8 97.6ZM102.8 160.4C102 160.3 101.5 160.8 101.4 161.5 101.3 162.5 101.9 163 102.9 163 103.7 163 104 162.4 104.1 161.7 103.9 161 103.5 160.5 102.8 160.4ZM102.9 130.4C102.4 130.4 102 130.7 102 131.3 102 132 102.2 132.6 103 132.6 103.5 132.6 103.8 132.2 103.9 131.6 103.9 131 103.8 130.4 102.9 130.4ZM97.9 125.4C96.8 125.2 96.4 126 96.4 126.8 96.4 127.5 97 127.9 97.8 127.9 98.6 127.9 98.9 127.4 99.1 126.7 99 126.1 98.6 125.6 97.9 125.4ZM98.9 116.8C99 116.1 98.9 115.5 98.4 115.4 97.5 115.3 97.1 115.6 97 116.2 96.9 116.9 97.1 117.5 97.9 117.6 98.4 117.8 98.8 117.4 98.9 116.8ZM107.9 95.4C107.1 95.3 106.7 95.8 106.5 96.5 106.3 97.2 106.7 97.8 107.4 98 108.4 98.3 109 97.7 109.1 96.8 109.1 96.1 108.6 95.6 107.9 95.4ZM102.9 140.4C102.4 140.4 102 140.7 102 141.3 102 142 102.2 142.6 103 142.6 103.5 142.6 103.8 142.2 103.9 141.6 103.9 141 103.8 140.4 102.9 140.4ZM97.8 137.6C98.7 137.8 98.8 137 98.9 136.5 98.9 135.9 98.6 135.5 98.1 135.4 97.2 135.3 96.9 135.9 97 136.6 97 137 97.4 137.6 97.8 137.6ZM108.8 107.2C108.8 107.3 108.8 107.3 108.8 107.2 108.8 107.2 108.8 107.2 108.8 107.2ZM103.8 121.2C103.7 120.7 103.4 120.3 102.8 120.5 102 120.7 101.8 121.3 102 122 102.1 122.5 102.4 122.9 103 122.8 103.8 122.5 104.1 121.9 103.8 121.2ZM106.5 137.2C106.7 137.9 107.4 138.2 108.1 138.1 108.8 137.9 109.1 137.3 109.1 136.7 108.9 135.8 108.4 135.3 107.7 135.4 106.7 135.6 106.2 136.2 106.5 137.2ZM108 105.4C107.1 105.4 106.9 106 107 106.7 107 107.3 107.4 107.6 107.9 107.7 108.7 107.7 108.8 107.2 108.8 107.2 108.9 105.8 108.5 105.5 108 105.4ZM108.1 127.7C108.5 127.6 108.7 127.1 109 126.8 108.8 126 108.8 125.3 107.8 125.4 107.3 125.5 106.9 125.9 107 126.4 107 127.1 107.2 127.9 108.1 127.7ZM107.6 155.4C106.8 155.5 106.3 156.1 106.4 156.7 106.5 157.6 107.2 158.2 108.1 158 108.8 157.9 109.2 157.2 109 156.5 108.9 155.8 108.4 155.4 107.6 155.4ZM102 152C102.2 152.5 102.6 152.8 103.1 152.7 103.7 152.3 104 151.8 103.7 151.1 103.5 150.6 103.1 150.3 102.6 150.5 102 150.7 101.8 151.3 102 152ZM107.8 165.4C107.3 165.5 106.9 165.9 107 166.4 107.1 167.1 107.3 167.8 108.1 167.6 108.5 167.5 108.7 167 109 166.7 108.8 166 108.7 165.3 107.8 165.4ZM131.5 121.9C131.7 122.8 132.4 123.2 133.2 123 133.9 122.8 134.1 122.2 134.1 121.5 133.8 120.7 133.2 120.2 132.3 120.4 131.7 120.6 131.4 121.3 131.5 121.9ZM132.4 90.5C131.7 90.7 131.4 91.3 131.5 92 131.7 92.9 132.4 93.3 133.2 93.1 133.9 92.9 134.1 92.3 134.1 91.6 133.9 90.7 133.3 90.2 132.4 90.5ZM132 111.8C132.1 112.6 132.7 112.9 133.3 112.8 133.6 112.7 133.9 112.1 133.9 111.7 133.9 111.1 133.7 110.4 133 110.5 132.1 110.5 131.9 111.1 132 111.8ZM97.8 145.4C97.3 145.5 96.9 145.8 97 146.4 97.1 147.1 97.2 147.8 98.1 147.6 98.5 147.5 98.9 147.2 99.1 147.1 98.8 146 98.7 145.3 97.8 145.4ZM132.6 80.4C131.9 80.5 131.4 81 131.4 81.7 131.4 82.6 132 83.2 132.9 83.1 133.6 83 133.9 82.5 134.1 81.8 134 81 133.6 80.3 132.6 80.4ZM133.9 141.8C134 141.1 133.8 140.6 133.1 140.4 132.3 140.4 132 140.9 132 141.6 132 142 132.3 142.6 132.7 142.7 133.4 143 133.8 142.5 133.9 141.8ZM132.6 72.7C133.3 73 133.8 72.6 133.9 71.8 134 71.1 133.8 70.6 133.1 70.4 132.3 70.4 132 70.9 132 71.5 132 71.9 132.3 72.5 132.6 72.7ZM133 130.4C132.3 130.2 131.8 130.6 131.5 131.2 131.1 132.2 131.7 132.7 132.5 133 133.2 133.2 133.7 132.8 134 132.1 134.4 131.2 133.8 130.7 133 130.4ZM133.1 100.4C132.1 100.6 131.9 101.1 132 101.8 132.1 102.6 132.7 102.9 133.3 102.8 133.6 102.7 133.9 102.1 133.9 101.7 133.9 101 133.7 100.3 133.1 100.4ZM137.5 126.1C137.3 126.6 137.6 127 138.1 127.1 138.6 127.2 138.9 127 139.1 126.3 138.8 126.1 138.5 125.7 138.2 125.6 138 125.6 137.6 125.9 137.5 126.1ZM133 150.4C132.3 150.2 131.8 150.6 131.5 151.2 131.1 152.2 131.7 152.7 132.5 153 133.2 153.2 133.7 152.8 134 152.1 134.4 151.2 133.8 150.7 133 150.4ZM137.6 137.7C138.3 138 138.7 137.6 138.9 136.8 139 136.1 138.8 135.5 138.1 135.4 137.3 135.3 137 135.9 137 136.5 137 136.9 137.3 137.5 137.6 137.7ZM132.9 62.7C133.5 62.9 133.7 62.4 133.9 62 134.2 61.3 133.9 60.6 133.3 60.4 132.7 60.2 132.1 60.5 132 61.3 131.9 62 132.2 62.5 132.9 62.7ZM142.9 152.7C143.5 152.9 143.7 152.4 143.9 152 144.2 151.3 143.9 150.6 143.3 150.4 142.7 150.2 142.1 150.5 142 151.3 141.9 152 142.2 152.5 142.9 152.7ZM143.1 160.3C142.3 160.4 142.2 161.1 142.2 161.7 142.3 162.4 142.6 163 143.4 162.9 144.1 162.8 144.3 162.1 144.4 161.4 144.2 160.7 143.8 160.2 143.1 160.3ZM138.1 155.4C137.3 155.3 137 155.9 137 156.5 137 156.9 137.3 157.5 137.7 157.6 138.4 157.9 138.8 157.5 139 156.7 139 156.1 138.8 155.5 138.1 155.4ZM138.3 115.5C137.7 115.3 137.1 115.5 137 116.4 136.9 117.1 137.2 117.7 137.9 117.8 138.8 118 138.9 117.2 139 116.7 138.9 116.2 138.6 115.5 138.3 115.5ZM138 145.5C137.1 145.3 136.7 145.8 136.5 146.5 136.2 147.5 136.9 148 137.7 148.1 138.5 148.3 138.9 147.7 139.1 147.1 139.4 146.1 138.7 145.7 138 145.5ZM123.1 150.4C122.2 150.3 121.9 150.9 122 151.6 122 152 122.5 152.5 122.8 152.6 123.7 152.9 123.8 152 123.9 151.4 123.9 150.9 123.6 150.5 123.1 150.4ZM122.6 60.3C121.7 60.5 121.1 61.1 121.5 62.1 121.7 62.8 122.4 63 123.1 62.8 123.8 62.6 124.2 62.1 124.1 61.3 123.9 60.5 123.4 60.1 122.6 60.3ZM122.8 79.8C121.8 79.7 121.3 80.3 121.2 81.2 121.1 82.3 121.8 83 122.9 83.2 123.9 83.4 124.3 82.8 124.5 81.9 124.2 80.9 124 79.9 122.8 79.8ZM122.8 70.4C121.9 70.5 121.4 71.1 121.4 71.7 121.4 72.4 121.9 73 122.7 73 123.8 73.1 124.2 72.4 124.1 71.5 124 70.8 123.4 70.4 122.8 70.4ZM128.9 86.8C129 86.1 128.8 85.6 128.1 85.4 127.3 85.4 127 85.9 127 86.6 127 87 127.3 87.6 127.7 87.7 128.4 88 128.8 87.5 128.9 86.8ZM132.4 160.2C131.7 160.4 131.3 160.9 131.5 161.6 131.7 162.3 132.4 162.5 133 162.4 133.6 162.3 134.2 161.9 133.9 161.2 133.7 160.6 133.1 160.3 132.4 160.2ZM122.9 160.4C122.4 160.4 122 160.7 122 161.3 122 162 122.2 162.7 123 162.6 123.6 162.6 123.8 162.2 123.9 161.6 123.9 161.1 123.8 160.4 122.9 160.4ZM123 140.4C122.2 140.2 121.7 140.7 121.5 141.4 121.3 142.4 121.9 143 122.8 143 123.6 143.1 123.9 142.5 124.1 141.8 124 141.1 123.7 140.6 123 140.4ZM122.4 133C123.4 133.3 124 132.7 124.1 131.8 124.2 131.1 123.6 130.6 122.9 130.4 122.1 130.3 121.6 130.8 121.5 131.5 121.3 132.2 121.7 132.8 122.4 133ZM128.1 97.2C128.6 97.3 129.1 97 128.9 96.5 128.8 96.2 128.3 95.9 128.1 95.7 127.4 95.9 127.2 96.3 127.4 96.7 127.5 96.9 127.9 97.2 128.1 97.2ZM128.1 147.8C128.9 147.6 129 147 128.9 146.4 128.8 145.6 128.3 145.3 127.6 145.5 127.3 145.6 127 146.2 127 146.6 127 147.2 127.3 147.8 128.1 147.8ZM127.6 135.4C126.9 135.5 126.4 136.1 126.4 136.7 126.4 137.5 127 138.2 128 138.1 128.7 138.1 129.2 137.5 129.2 136.8 129.1 136 128.5 135.4 127.6 135.4ZM128.2 125.2C127.5 125.2 127.1 125.8 127.2 126.5 127.2 127.2 127.6 127.9 128.3 127.9 129 127.9 129.3 127.2 129.4 126.6 129.2 125.8 128.9 125.2 128.2 125.2ZM127.8 155.4C127.3 155.5 126.9 155.7 126.9 156.3 126.9 157 127.1 157.6 127.8 157.7 128.7 157.9 128.7 157.1 128.9 156.5 128.7 156.1 128.8 155.2 127.8 155.4ZM127.8 75.4C127.3 75.5 126.9 75.7 126.9 76.3 126.9 77 127.1 77.6 127.8 77.7 128.7 77.9 128.7 77.1 128.9 76.5 128.8 76 128.7 75.3 127.8 75.4ZM128.3 165.5C127.7 165.3 127.1 165.5 127 166.4 126.9 167.1 127.2 167.7 127.9 167.8 128.8 168 128.9 167.2 129 166.7 128.9 166.2 128.6 165.5 128.3 165.5ZM128.1 108.1C128.8 108 129.2 107.3 129.2 106.7 129.1 105.8 128.4 105.3 127.5 105.4 126.8 105.5 126.5 106.1 126.4 106.8 126.7 107.6 127.2 108.2 128.1 108.1ZM114 61.8C114.2 60.8 113.7 60.2 112.7 60.2 111.9 60.2 111.5 60.7 111.4 61.4 111.3 62.1 111.8 62.6 112.5 62.7 113.3 62.8 113.9 62.5 114 61.8ZM72.9 110.3C72 110.3 71.9 111 72 111.7 72.1 112.4 72.5 112.9 73.2 112.9 74 112.8 74.2 112.1 74.2 111.5 74 110.7 73.6 110.2 72.9 110.3ZM62.4 103C63.3 103.1 63.8 102.7 63.9 102 64.1 101.3 63.7 100.7 63 100.5 62 100.1 61.4 100.8 61.3 101.7 61.2 102.3 61.8 102.8 62.4 103ZM62.9 160.4C62.1 160.3 61.8 160.9 61.8 161.5 61.8 161.9 62.1 162.5 62.5 162.6 63.1 162.8 63.7 162.5 63.8 161.8 63.9 161.1 63.7 160.6 62.9 160.4ZM63 90.4C61.9 90.1 61.4 90.9 61.4 91.7 61.3 92.4 61.9 92.9 62.7 93 63.5 93 64 92.6 64.1 91.9 64.1 91.2 63.6 90.6 63 90.4ZM63.2 150.5C62.6 150.3 62 150.5 61.9 151.3 61.8 152 62.1 152.5 62.8 152.7 63.4 152.9 63.6 152.4 63.8 152 64 151.3 63.7 150.7 63.2 150.5ZM62.4 60.4C61.7 60.5 61.3 61.2 61.4 61.9 61.5 62.6 62 63 62.7 63.1 63.5 63 64 62.6 64 61.9 64 60.9 63.3 60.3 62.4 60.4ZM62.5 83C63.5 83.1 64 82.5 63.9 81.5 63.8 80.8 63.2 80.4 62.5 80.4 61.7 80.5 61.3 81.1 61.3 81.7 61.3 82.4 61.8 83 62.5 83ZM62.4 70.4C61.7 70.5 61.3 71.2 61.4 71.9 61.5 72.6 62 73 62.7 73.1 63.5 73 64 72.6 64 71.9 64 70.9 63.3 70.3 62.4 70.4ZM62.7 140.4C62.2 140.5 61.9 140.7 61.8 141.3 61.8 142 62 142.5 62.7 142.7 63.6 142.8 63.7 142.1 63.8 141.6 63.7 140.9 63.5 140.3 62.7 140.4ZM62.7 52.7C63.5 52.9 63.8 52.2 63.8 51.6 63.8 51 63.5 50.4 62.8 50.4 61.9 50.5 61.7 51.1 61.9 51.7 62 52.1 62.4 52.6 62.7 52.7ZM62.7 120.4C61.8 120.4 61.4 120.9 61.3 121.6 61.2 122.3 61.7 122.9 62.3 123 63.3 123.2 63.9 122.6 63.9 121.6 64 120.9 63.4 120.5 62.7 120.4ZM72.6 160.4C71.7 160.5 71.1 161.2 71.5 162.1 71.7 162.8 72.3 163.2 73 163 73.7 162.8 74 162.3 74 161.6 73.8 160.8 73.3 160.3 72.6 160.4ZM73.8 141.3C73.7 140.8 73.4 140.4 72.8 140.5 72.3 140.6 71.9 140.8 71.9 141.4 71.9 142.1 72.1 142.7 72.9 142.7 73.8 142.6 73.9 142 73.8 141.3ZM68.8 156.5C68.8 156.1 68.3 155.6 68 155.5 67.1 155.3 66.9 156 66.7 157.3 66.8 157.3 67.2 157.7 67.7 157.8 68.6 157.9 68.9 157.1 68.8 156.5ZM71.9 151.6C71.9 152 72.4 152.5 72.7 152.6 73.6 152.8 73.7 152.1 73.8 151.7 73.9 150.8 73.5 150.5 73 150.4 72.1 150.3 71.8 150.9 71.9 151.6ZM62.7 132.7C63.3 132.9 63.5 132.4 63.7 132 64 131.3 63.7 130.7 63.1 130.5 62.5 130.3 61.9 130.5 61.8 131.3 61.8 132 62 132.5 62.7 132.7ZM62.4 43C63.3 43.1 63.8 42.7 63.9 42 64.1 41.3 63.7 40.7 63 40.5 62 40.1 61.4 40.8 61.3 41.7 61.2 42.3 61.8 42.8 62.4 43ZM63 110.2C62.2 110.3 61.9 110.8 61.9 111.5 61.9 112.2 62.3 112.8 63 112.8 63.7 112.8 64.2 112.2 64.2 111.5 64.2 110.8 63.7 110.3 63 110.2ZM67.3 166.1C67.1 166.6 67.4 167 67.8 167.1 68.3 167.2 68.7 167.1 68.9 166.5 68.6 166.3 68.3 165.9 68 165.7 67.9 165.6 67.4 165.9 67.3 166.1ZM57.5 127.6C58.1 127.8 58.7 127.5 58.8 126.7 58.9 126 58.7 125.5 57.7 125.3 57.1 125.3 56.7 125.8 56.8 126.5 56.9 126.9 57.2 127.5 57.5 127.6ZM139.2 166.6C138.9 165.8 138.3 165.2 137.4 165.4 136.7 165.5 136.4 166.2 136.5 166.8 136.6 167.4 136.9 167.8 137.4 167.9L138.4 167.9C138.9 167.8 139.1 167.2 139.2 166.6ZM57.3 78C58.3 78.3 59 77.7 59 76.8 59 76.1 58.4 75.7 57.8 75.5 56.9 75.3 56.6 75.9 56.4 76.6 56.2 77.2 56.6 77.8 57.3 78ZM57.8 55.4C56.9 55.2 56.6 55.8 56.4 56.5 56.2 57.2 56.6 57.8 57.3 58 58.3 58.3 59 57.7 59 56.8 59 56.1 58.4 55.6 57.8 55.4ZM57.9 88C58.6 87.9 59 87.3 59 86.6 58.8 85.9 58.3 85.4 57.6 85.4 56.6 85.4 56.1 86.1 56.4 87 56.6 87.7 57.1 88.2 57.9 88ZM57.8 65.4C56.9 65.5 56.7 66.1 56.9 66.7 57 67.1 57.4 67.5 57.7 67.6 58.5 67.8 58.8 67.1 58.8 66.5 58.9 66 58.5 65.4 57.8 65.4ZM18.9 166.8C18.8 166.1 18.5 165.5 17.8 165.5 16.8 165.4 16.3 166.1 16.3 166.9 16.3 167.5 16.9 168 17.5 168L17.7 168C18.3 167.9 18.7 167.5 18.9 166.8ZM57.7 165.2C56.8 165 56 165.2 56 166.3 56 167 56.3 167.6 56.9 168L58.8 168C59 167.8 59.1 167.6 59.2 167.3 59.2 166.3 58.9 165.4 57.7 165.2ZM119.2 166.8C119.1 166.1 118.7 165.6 118 165.4 117.2 165.2 116.7 165.7 116.5 166.4 116.3 167.3 116.8 167.9 117.6 168L118.2 168C118.7 167.9 119 167.4 119.2 166.8ZM57.7 115.4C56.6 115.3 56.2 116.1 56.4 116.9 56.5 117.6 57 118.1 57.8 118 58.5 117.9 58.9 117.4 59 116.7 58.9 116 58.4 115.5 57.7 115.4ZM62.7 20.2C61.9 20.2 61.5 20.6 61.3 21.3 61.2 22 61.6 22.7 62.3 22.7 63.2 22.8 64 22.3 64 21.3 64.1 20.6 63.5 20.3 62.7 20.2ZM62.8 10.4C61.7 10.2 61.3 11 61.3 11.8 61.3 12.5 61.9 13 62.7 13 63.5 13 63.9 12.5 64 11.8 64 11.1 63.5 10.6 62.8 10.4ZM57.3 156.1C57.1 156.6 57.4 157 57.9 157.1 58.4 157.2 58.8 157.1 59 156.4 58.7 156.2 58.4 155.8 58 155.7 57.8 155.7 57.4 155.9 57.3 156.1ZM57.7 95.4C56.6 95.3 56.2 96.1 56.4 96.9 56.5 97.6 57 98.1 57.8 98 58.5 97.9 58.9 97.4 59 96.7 58.9 96 58.4 95.5 57.7 95.4ZM61.9 31.3C61.9 32 62.1 32.7 62.9 32.8 63.6 32.9 64.1 32.4 64.2 31.7 64.1 31 64 30.4 63.2 30.3 62.4 30.2 61.9 30.6 61.9 31.3ZM57.7 147.7C58.6 147.9 58.8 147.2 58.8 146.6 58.8 146.2 58.5 145.6 58.1 145.5 57.5 145.3 56.9 145.5 56.8 146.3 56.8 147 57 147.5 57.7 147.7ZM57.5 137.6C58.1 137.8 58.7 137.5 58.8 136.7 58.9 136 58.7 135.5 57.7 135.3 57.1 135.3 56.7 135.8 56.8 136.5 56.9 136.9 57.2 137.5 57.5 137.6ZM71.4 91.9C71.5 92.6 72.1 93 72.9 92.8 73.6 92.6 74.1 92.2 74.1 91.5 74 90.7 73.5 90.3 72.7 90.3 71.7 90.2 71.3 90.9 71.4 91.9ZM83.9 121.7C83.9 121 83.8 120.4 82.9 120.4 82.4 120.4 82 120.7 82 121.3 82 122 82.2 122.6 83 122.6 83.5 122.7 83.8 122.3 83.9 121.7ZM93 160.4C92.1 160.4 91.9 161 92 161.7 92 162.3 92.4 162.6 92.9 162.7 93.8 162.7 93.9 162.1 93.9 161.4 93.9 160.8 93.5 160.5 93 160.4ZM93.3 130.6C92.6 130.2 92 130.3 91.6 131 91.1 131.9 91.4 132.6 92.3 133 93 133.3 93.6 132.9 94 132.1 94.3 131.4 93.9 130.9 93.3 130.6ZM92.9 150.4C91.8 150.2 91.4 151 91.4 151.9 91.4 152.6 92 153.1 92.8 153.1 93.6 153.1 94 152.6 94.1 151.9 94 151.1 93.6 150.5 92.9 150.4ZM91.5 52.1C91.7 52.8 92.3 53.2 93 53.1 93.7 53 94 52.4 94.1 51.7 93.9 51 93.4 50.5 92.7 50.5 91.7 50.4 91.2 51.1 91.5 52.1ZM93 43C93.7 42.9 94 42.3 94.1 41.6 93.9 40.9 93.4 40.4 92.7 40.4 91.7 40.4 91.2 41.1 91.5 42.1 91.7 42.8 92.3 43.2 93 43ZM83.1 70.5C82.3 70.3 82 71 81.9 71.8 82.1 72 82.4 72.6 82.8 72.7 83.7 72.9 83.9 72.2 83.9 71.5 83.8 71.1 83.4 70.6 83.1 70.5ZM82.8 83C83.6 82.9 83.9 82.4 84 81.7 83.9 80.9 83.4 80.4 82.7 80.4 81.6 80.3 81.2 81.1 81.3 82 81.5 82.7 82.1 83.1 82.8 83ZM87.9 165.2C87 165.2 86.9 165.9 87 166.6 87.1 167.3 87.5 167.9 88.2 167.8 89 167.7 89.2 167 89.2 166.4 89.1 165.6 88.6 165.2 87.9 165.2ZM92.9 110.4C91.8 110.2 91.4 111 91.4 111.9 91.4 112.6 92 113.1 92.8 113.1 93.6 113.1 94 112.6 94.1 111.9 94 111.1 93.6 110.5 92.9 110.4ZM92.6 100.4C91.7 100.5 91.2 101.1 91.5 102 91.7 102.9 92.5 103.2 93.3 103.2 94.1 103.1 94.3 102.6 94.2 101.9 94 101.1 93.6 100.4 92.6 100.4ZM92.7 120.4C91.7 120.4 91.3 121.1 91.5 122 91.7 122.7 92.2 123.1 93 123 93.7 122.9 94 122.3 94.1 121.6 93.9 120.9 93.4 120.4 92.7 120.4ZM98.1 165.4C97.2 165.3 96.9 165.9 97 166.6 97 167 97.5 167.5 97.8 167.6 98.7 167.8 98.8 167 98.9 166.5 98.9 165.9 98.6 165.5 98.1 165.4ZM82.8 60.4C81.7 60.3 81.3 61.1 81.4 62 81.5 62.7 82.1 63.1 82.8 63.1 83.6 63 83.9 62.5 84 61.8 83.9 61 83.4 60.5 82.8 60.4ZM73.9 81.4C73.6 81.2 73.3 80.9 72.9 80.7 72.7 80.6 72.3 80.9 72.2 81.1 72 81.6 72.4 82 72.9 82.1 73.4 82.3 73.8 82.1 73.9 81.4ZM93 62.7C93.5 62.7 93.8 62.3 93.9 61.7 93.9 61 93.8 60.4 92.9 60.4 92.4 60.4 92 60.7 92 61.3 92 62 92.1 62.7 93 62.7ZM92.4 83C93.1 83.3 93.7 82.9 94.1 82.1 94.3 81.5 93.9 81 93.3 80.7 92.6 80.3 92 80.4 91.6 81.1 91.1 81.9 91.5 82.6 92.4 83ZM92.7 72.7C93.2 72.9 93.6 72.5 93.8 72 94.1 71.3 93.8 70.8 93.2 70.4 92.6 70.3 92.2 70.6 92.1 71 91.8 71.8 92 72.4 92.7 72.7ZM92.7 93C93.5 93 94 92.5 94 91.8 94 90.9 93.3 90.2 92.4 90.3 91.7 90.4 91.3 91.1 91.4 91.8 91.5 92.6 92 93 92.7 93ZM71.9 51.6C71.9 52 72.4 52.5 72.7 52.6 73.6 52.8 73.7 52.1 73.8 51.7 73.9 50.8 73.5 50.5 73 50.4 72.1 50.3 71.8 50.9 71.9 51.6ZM74.1 41.3C73.9 40.5 73.4 40.1 72.7 40.2 71.7 40.3 71.2 41 71.5 41.9 71.7 42.6 72.3 42.9 73.1 42.7 73.7 42.6 74.1 42.1 74.1 41.3ZM78 165.4C77.1 165.4 76.9 166 76.9 166.7 76.9 167.3 77.3 167.6 77.8 167.6 78.7 167.6 78.8 167 78.9 166.3 78.8 165.8 78.5 165.5 78 165.4ZM78.1 155.4C77.5 155.3 77.1 155.6 76.9 156.1 76.6 156.8 76.9 157.4 77.6 157.7 78.1 157.9 78.5 157.5 78.7 157.1 79.1 156.3 78.8 155.8 78.1 155.4ZM73 70.2C72.2 70.2 71.9 70.8 71.9 71.5 71.9 72.2 72.3 72.8 73 72.8 73.7 72.8 74.1 72.2 74.2 71.5 74.1 70.9 73.7 70.2 73 70.2ZM73.2 100.3C72.5 100.2 71.9 100.6 71.9 101.4 71.9 102.1 72.1 102.7 72.8 102.9 73.6 102.9 74.1 102.5 74.1 101.8 74.2 101.1 74 100.4 73.2 100.3ZM72.7 123C73.5 122.9 74 122.5 74 121.8 74 120.8 73.3 120.2 72.4 120.4 71.7 120.5 71.3 121.2 71.3 121.9 71.4 122.6 71.9 123 72.7 123ZM146.5 96.6C146.6 97.3 147 97.8 147.7 98 148.5 98.2 149 97.7 149.1 97 149.3 96 148.7 95.5 147.8 95.4 147 95.4 146.7 96 146.5 96.6ZM82.5 20.2C81.8 20.3 81.4 20.9 81.4 21.6 81.4 22.4 82 22.7 82.7 22.8 83.4 22.7 84.1 22.4 84.1 21.6 84.1 20.7 83.5 20.1 82.5 20.2ZM81.4 42.1C81.6 42.8 82.2 43.2 82.9 43.1 83.6 43 83.9 42.4 84 41.7 83.8 41 83.3 40.5 82.6 40.5 81.7 40.5 81.2 41.1 81.4 42.1ZM82.9 102.7C83.8 102.7 83.9 102.1 83.9 101.4 83.9 100.8 83.5 100.5 83 100.4 82.1 100.4 81.9 101 82 101.7 82 102.3 82.3 102.6 82.9 102.7ZM82.9 160.4C81.8 160.2 81.4 161 81.4 161.8 81.4 162.6 82 163 82.7 163 83.5 163 83.9 162.5 84 161.8 84 161.1 83.5 160.6 82.9 160.4ZM83.1 110.2C82.1 110 81.5 110.7 81.4 111.6 81.3 112.3 81.9 112.8 82.7 112.8 83.4 112.8 84 112.4 84.1 111.7 84.1 110.9 83.8 110.4 83.1 110.2ZM83 30.2C81.9 30.1 81.5 30.8 81.5 31.7 81.5 32.5 82.1 32.9 82.9 32.8 83.6 32.7 84.1 32.3 84.3 31.6 84.1 30.8 83.7 30.3 83 30.2ZM82.6 153C83.4 153.1 83.8 152.6 84 151.9 84 151.2 83.6 150.6 82.9 150.4 81.8 150.1 81.4 150.9 81.3 151.7 81.3 152.5 81.9 152.9 82.6 153ZM81.4 131.6C81.3 132.3 81.8 132.9 82.5 133 83.5 133.2 84.1 132.6 84.1 131.7 84.1 131 83.5 130.6 82.8 130.4 81.9 130.4 81.5 130.9 81.4 131.6ZM97.8 155.4C97.3 155.5 96.9 155.8 97 156.4 97.1 157.1 97.2 157.8 98.1 157.6 98.5 157.5 98.9 157.2 99.1 157.1 98.8 156 98.7 155.3 97.8 155.4ZM127.8 115.4C127 115.3 126.6 115.8 126.5 116.5 126.3 117.4 127 117.9 127.7 118.1 128.6 118.2 129 117.7 129.1 117 129.3 116.1 128.7 115.5 127.8 115.4ZM142.9 62.7C143.8 62.9 143.8 62.1 144 61.6 143.8 61 143.8 60.3 142.9 60.4 142.4 60.5 142 60.7 142 61.3 141.9 62 142.1 62.6 142.9 62.7ZM142 51.3C141.9 52 142.2 52.6 142.9 52.7 143.8 52.9 143.9 52.1 144 51.6 144 51.2 143.7 50.6 143.4 50.5 142.7 50.3 142.1 50.5 142 51.3ZM142.5 73C143.5 73.3 144.1 72.7 144.2 71.8 144.3 71.1 143.7 70.6 143 70.4 142.2 70.3 141.8 70.8 141.6 71.4 141.4 72.2 141.8 72.8 142.5 73ZM152.9 33C153.7 33 154 32.4 154.2 31.8 154.1 31.1 153.7 30.6 153 30.4 152.2 30.2 151.7 30.7 151.6 31.4 151.4 32.4 152 33 152.9 33ZM138 65.6C137.2 65.8 137.1 66.4 137.4 67.1 137.6 67.7 137.9 68.3 138.7 68.2 139.6 68 139.7 67.4 139.4 66.7 139 66.2 138.8 65.5 138 65.6ZM143.1 20.4C142.3 20.3 141.9 20.9 142 21.5 142 21.9 142.3 22.5 142.7 22.6 143.4 22.9 143.8 22.5 144 21.7 144 21.1 143.8 20.5 143.1 20.4ZM137.8 17.8C138.5 17.7 139 17.3 139.2 16.6 139.1 15.9 138.7 15.4 138 15.3 137 15.2 136.5 15.9 136.5 16.8 136.5 17.5 137.1 17.9 137.8 17.8ZM143.3 12.7C143.6 12.6 143.9 12 143.9 11.6 143.9 11 143.7 10.3 143 10.4 142 10.6 141.8 11.1 141.9 11.8 142.1 12.5 142.7 12.9 143.3 12.7ZM142.9 33C143.7 33 144 32.4 144.2 31.8 144.1 31.1 143.7 30.6 143 30.4 142.2 30.2 141.7 30.7 141.6 31.4 141.4 32.4 142 33 142.9 33ZM143.1 40.4C142.1 40.6 141.9 41.1 142 41.8 142.1 42.6 142.7 42.9 143.3 42.8 143.6 42.7 143.9 42.1 143.9 41.7 143.9 41 143.7 40.3 143.1 40.4ZM138 77.8C138.8 77.6 138.9 77 138.9 76.4 138.9 75.9 138.5 75.5 138.1 75.5 137.3 75.4 137 76 137 76.6 137 77.2 137.3 77.8 138 77.8ZM138.1 97.8C138.9 97.6 138.9 97 138.9 96.4 138.9 95.9 138.5 95.5 138.1 95.5 137.3 95.4 137 96 137 96.6 137 97.2 137.3 97.8 138.1 97.8ZM138.1 85.4C137.1 85.6 136.9 86.1 137 86.8 137.1 87.6 137.7 87.9 138.3 87.8 138.6 87.7 138.9 87.1 138.9 86.7 138.9 86 138.7 85.3 138.1 85.4ZM137.9 7.7C138.5 7.9 138.7 7.4 138.9 7 139.2 6.3 138.9 5.6 138.3 5.4 137.7 5.2 137.1 5.5 137 6.3 136.9 7 137.2 7.5 137.9 7.7ZM137.9 57.7C138.8 57.9 138.8 57.1 139 56.6 138.8 56 138.8 55.3 137.9 55.4 137.4 55.5 137 55.7 137 56.3 136.9 57 137.1 57.6 137.9 57.7ZM137.8 25.4C137 25.3 136.6 25.8 136.5 26.5 136.3 27.4 136.9 27.9 137.8 28.1 138.6 28.1 139 27.7 139.1 27 139.3 26.1 138.7 25.6 137.8 25.4ZM138.1 35.4C137.3 35.3 137 35.9 137 36.5 137 36.9 137.3 37.5 137.7 37.6 138.4 37.9 138.8 37.5 139 36.7 139 36.1 138.8 35.5 138.1 35.4ZM137.3 48C138.6 48.2 139 47.7 139.2 47 139.4 46.1 138.8 45.5 137.9 45.4 137.1 45.3 136.7 45.8 136.6 46.5 136.4 47.4 136.9 47.9 137.3 48ZM143.1 2.9C143.8 3 144.2 2.4 144.3 1.7 144.2 1 144.1 0.4 143.3 0.3 142.6 0.2 142.1 0.7 142.1 1.4 142.2 2.1 142.3 2.8 143.1 2.9ZM148.2 55.3C147.7 55.4 147.3 55.7 147.4 56.3 147.5 57.1 148.1 57.3 148.8 57.2 149.3 57.1 149.6 56.8 149.6 56.5 149.4 55.3 148.9 55.2 148.2 55.3ZM152.8 73.1C153.6 73.2 154 72.7 154.2 72 154.3 71.3 153.9 70.7 153.2 70.5 152.2 70.2 151.6 70.9 151.6 71.8 151.5 72.5 152.1 72.9 152.8 73.1ZM148 47.9C148.7 47.9 149.1 47.3 149.1 46.6 149.1 45.9 148.7 45.4 148 45.3 147.2 45.4 146.9 45.9 146.9 46.6 146.9 47.2 147.3 47.9 148 47.9ZM147.9 37.8C148.6 37.9 149 37.4 149.1 36.7 149 36.1 148.9 35.4 148.1 35.3 147.4 35.2 146.9 35.6 146.9 36.4 146.9 37.1 147.1 37.7 147.9 37.8ZM153 40.3C152.3 40.4 151.9 40.9 151.9 41.6 151.9 42.3 152.3 42.9 153 42.9 153.7 42.9 154.1 42.3 154.1 41.6 154.1 41 153.7 40.4 153 40.3ZM147.9 7.8C148.6 7.9 149 7.4 149.1 6.7 149 6.1 148.9 5.4 148.1 5.3 147.4 5.2 146.9 5.6 146.9 6.4 146.9 7.1 147.1 7.7 147.9 7.8ZM151.9 51.7C151.9 52.4 152.4 52.9 153.1 52.8 153.9 52.7 154 52 154 51.4 153.9 50.7 153.5 50.3 152.8 50.3 152 50.4 151.9 51.1 151.9 51.7ZM153 62.9C153.7 62.8 154.1 62.3 154.1 61.6 154.1 60.9 153.7 60.3 153 60.3 152.3 60.3 151.9 60.8 151.9 61.5 151.9 62.2 152.3 62.7 153 62.9ZM148.1 28.1C148.8 28 149.1 27.4 149.2 26.7 149 26 148.5 25.5 147.8 25.5 147 25.4 146.5 26 146.5 26.7 146.5 27.6 147.2 28.2 148.1 28.1ZM142 91.5C142 91.9 142.3 92.5 142.7 92.6 143.4 92.9 143.8 92.5 144.1 90.9 144.1 91.1 143.9 90.5 143.1 90.4 142.3 90.3 141.9 90.9 142 91.5ZM142.8 130.8C142.6 130.9 142.4 131.4 142.5 131.7 142.7 132.2 143.2 132.4 143.7 132.2 144.1 132 144.2 131.7 144 131.4 143.7 130.8 143.4 130.4 142.8 130.8ZM143.1 80.4C142.1 80.6 141.9 81.1 142 81.8 142.1 82.6 142.7 82.9 143.3 82.8 143.6 82.7 143.9 82.1 143.9 81.7 143.9 81 143.7 80.3 143.1 80.4ZM141.6 101.5C141.5 102.5 142.1 103.1 143.1 103 143.8 103 144.1 102.3 144.3 101.7 144.1 101 143.7 100.5 143 100.4 142.1 100.3 141.6 100.8 141.6 101.5ZM143.1 120.3C142.3 120.4 142.2 121.1 142.2 121.7 142.3 122.4 142.6 123 143.4 122.9 144.1 122.8 144.3 122.1 144.4 121.4 144.2 120.7 143.8 120.2 143.1 120.3ZM142.2 111.7C142.3 112.4 142.6 113 143.4 112.9 144.1 112.8 144.4 112.1 144.4 111.5 144.4 110.8 143.9 110.4 143.2 110.3 142.3 110.4 142.1 111 142.2 111.7ZM147.8 15.3C147 15.4 146.8 16 146.9 16.7 146.9 17.4 147.4 17.8 148.1 17.9 148.9 17.7 149.1 17.1 149 16.5 149 15.7 148.6 15.3 147.8 15.3ZM147.9 67.8C148.6 67.6 149.3 67.3 149.3 66.6 149.3 65.6 148.5 65.2 147.6 65.3 146.9 65.4 146.5 66.1 146.6 66.8 146.6 67.5 147.1 67.9 147.9 67.8ZM142.7 143C143.8 143.1 144.2 142.4 144.1 141.5 144 140.8 143.5 140.4 142.9 140.4 141.9 140.5 141.5 141 141.5 141.7 141.5 142.4 142 143 142.7 143ZM118.2 7.7C118.8 7.4 119.1 6.8 118.8 6.1 118.6 5.6 118.2 5.3 117.7 5.4 117 5.8 116.8 6.3 117.1 7 117.2 7.5 117.7 7.9 118.2 7.7ZM117.8 17.7C118.7 17.9 118.9 17.1 118.9 16.5 118.9 16.1 118.4 15.6 118.1 15.5 117.2 15.3 117 16 116.9 16.8 117.2 17.1 117.4 17.6 117.8 17.7ZM117.5 48C118.5 48.2 119.1 47.6 119.1 46.6 119.1 45.9 118.5 45.5 117.8 45.3 117 45.3 116.5 45.8 116.4 46.5 116.3 47.3 116.8 47.9 117.5 48ZM118.8 27.1C119.1 26.4 118.8 25.8 118.2 25.5 117.7 25.3 117.2 25.6 117.1 26.1 116.8 26.8 117.1 27.4 117.8 27.7 118.3 28 118.6 27.5 118.8 27.1ZM122.2 53.2C123.3 53.2 123.9 52.3 124.1 51.3 124.3 50.7 123.9 50.3 123.4 50.3 122.3 50.3 121.5 50.9 121.2 51.9 120.9 52.6 121.5 53.2 122.2 53.2ZM123 13.2C124.1 13.3 124.5 12.6 124.5 11.7 124.5 10.8 124.1 10.1 123.2 10.1 122.1 10.2 121.4 10.8 121.4 11.6 121.3 12.5 122.1 13.1 123 13.2ZM118.2 55.3C117.6 55.2 116.9 55.5 117.1 56.4 117.2 56.8 117.7 57 117.9 57.3 118.7 57.2 119.4 57 119.2 56.2 119.1 55.8 118.6 55.3 118.2 55.3ZM118 35.3C117.2 35.4 117.1 36.1 117.1 36.7 117.2 37.4 117.5 38 118.3 37.9 119 37.8 119.2 37.1 119.2 36.4 119.1 35.7 118.7 35.2 118 35.3ZM118 68.2C118.7 68.3 119.3 67.8 119.3 67 119.4 65.9 119 65.1 117.7 64.8 116.7 64.8 116.1 65.3 116.1 66.2 116.1 67.4 116.9 68.1 118 68.2ZM113.9 81.9C114 81.2 113.9 80.6 113 80.5 112.4 80.5 112.1 80.8 112 81.3 111.9 82 112.1 82.6 112.9 82.8 113.5 82.8 113.8 82.4 113.9 81.9ZM112.8 92.7C113.7 92.9 113.9 92.1 113.9 91.5 113.9 91.1 113.4 90.6 113.1 90.5 112.2 90.3 112 91 111.9 91.8 112.2 92.1 112.4 92.6 112.8 92.7ZM112.5 70.3C111.8 70.4 111.4 71 111.4 71.7 111.4 72.5 112 72.8 112.7 72.8 113.4 72.7 114.1 72.4 114.1 71.6 114.1 70.7 113.5 70.1 112.5 70.3ZM112.7 112.7C113.3 112.9 113.6 112.5 113.8 112 114.1 111.3 113.8 110.7 113.2 110.4 112.7 110.2 112.2 110.5 112.1 111 111.8 111.8 112 112.4 112.7 112.7ZM113.8 102.2C113.8 102.3 113.8 102.3 113.8 102.2 113.8 102.2 113.8 102.2 113.8 102.2ZM113.1 120.5C112.4 120.2 111.8 120.7 111.6 121.3 111.2 122.4 112 122.8 112.7 123.2 113.4 123.5 114 123.2 114.3 122.5 114.3 121.5 113.9 120.8 113.1 120.5ZM113 100.4C112.1 100.4 111.9 101 112 101.7 112 102.3 112.4 102.6 112.9 102.7 113.7 102.7 113.8 102.2 113.8 102.2 113.9 100.8 113.5 100.5 113 100.4ZM111.9 131.8C111.8 132.8 112.3 133.5 113.3 133.5 114.2 133.5 114.8 132.8 114.8 131.8 114.8 130.8 114.3 130.2 113.4 130.1 112.3 130.1 111.8 130.8 111.9 131.8ZM149.1 86.8C149.1 86.2 149 85.5 148.2 85.4 147.5 85.3 147 85.6 147 86.4 147 87.1 147.2 87.7 147.9 87.9 148.6 87.9 149 87.5 149.1 86.8ZM133.3 40.4C132.7 40.2 132.1 40.5 132 41.3 131.9 42 132.2 42.5 132.9 42.7 133.5 42.9 133.7 42.4 133.9 42 134.1 41.3 133.9 40.7 133.3 40.4ZM133.3 53.3C134.3 53.4 134.7 52.7 134.7 51.8 134.6 50.9 134.2 50.2 133.2 50.2 132.1 50.2 131.3 50.8 131.4 52 131.6 52.8 132.4 53.2 133.3 53.3ZM132.8 32.8C133.5 32.6 134.1 32.3 134.1 31.5 134.1 30.5 133.4 30.1 132.4 30.2 131.7 30.3 131.3 31 131.4 31.7 131.5 32.5 132.1 32.9 132.8 32.8ZM127.6 7.7C128.3 8 128.7 7.6 129 5.9 128.9 6.2 128.7 5.6 128 5.5 127.2 5.4 126.8 6 126.9 6.6 127 6.9 127.3 7.5 127.6 7.7ZM132 21.5C132 21.9 132.3 22.5 132.7 22.6 133.4 22.9 133.8 22.5 134.1 20.8 134 21.1 133.8 20.5 133.1 20.4 132.3 20.3 131.9 20.9 132 21.5ZM127.6 17.7C128.3 18 128.7 17.6 129 15.9 128.9 16.2 128.7 15.6 128 15.5 127.2 15.4 126.8 16 126.9 16.6 127 16.9 127.3 17.5 127.6 17.7ZM132.6 2.7C133.3 3 133.8 2.6 133.9 1.8 134 1.1 133.8 0.6 133.1 0.4 132.3 0.4 132 0.9 132 1.5 132 1.9 132.3 2.5 132.6 2.7ZM133.3 13C134 12.8 134.2 12.2 134.2 11.5 133.9 10.7 133.3 10.2 132.4 10.4 131.7 10.6 131.4 11.2 131.5 11.9 131.7 12.8 132.4 13.2 133.3 13ZM122.7 2.8C123.4 2.7 124.1 2.4 124.1 1.6 124.1 0.6 123.5 0.1 122.5 0.2 121.8 0.3 121.4 0.9 121.4 1.6 121.4 2.4 122 2.8 122.7 2.8ZM121.4 31.8C121.4 32.5 122 33 122.7 33.1 123.5 33.2 123.9 32.6 124.1 32 124.1 31.3 123.7 30.7 123 30.5 122 30.2 121.5 30.9 121.4 31.8ZM121.4 42.2C121.6 43.1 122.4 43.3 123.3 43.2 124.1 43 124.8 42.6 124.9 41.7 124.6 40.8 123.8 40.5 123 40.5 121.9 40.4 121.2 41 121.4 42.2ZM128.5 68.3C129.5 68.2 129.8 67.5 129.6 66.6 129.4 65.7 128.9 65.2 127.9 65.2 126.9 65.3 126.2 66 126.3 66.7 126.4 67.8 127.5 68.3 128.5 68.3ZM123.9 21.8C123.9 21.1 123.8 20.4 122.9 20.5 122.4 20.5 122 20.8 122 21.4 122 22.1 122.2 22.8 123 22.7 123.6 22.7 123.8 22.3 123.9 21.8ZM127.7 28.1C128.5 28.3 128.9 27.7 129.1 27.1 129.4 26.1 128.7 25.7 127.9 25.4 127 25.3 126.6 25.8 126.5 26.4 126.2 27.4 126.9 27.9 127.7 28.1ZM128 38.1C128.7 38.1 129.2 37.5 129.2 36.8 129.2 35.9 128.6 35.4 127.6 35.4 126.9 35.5 126.4 36.1 126.4 36.7 126.5 37.5 127.1 38.1 128 38.1ZM138.1 107.7C138.8 107.5 139.2 107 139.1 106.3 138.9 105.5 138.4 105.2 137.7 105.2 136.9 105.3 136.5 105.8 136.5 106.5 136.5 107.5 137.1 108 138.1 107.7ZM127.4 45.4C126.7 45.5 126.3 46.2 126.4 46.8 126.6 47.7 127.3 48.2 128.1 48 128.8 47.9 129 47.2 129.1 46.6 128.9 45.8 128.3 45.2 127.4 45.4ZM128.1 57.7C128.8 57.5 129.2 57 129.1 56.2 128.9 55.5 128.4 55 127.6 55.2 126.7 55.4 126.1 56 126.5 57 126.7 57.7 127.4 57.9 128.1 57.7ZM163.4 110.3C162.7 110.2 162.2 110.6 162.2 111.4 162.2 112.1 162.4 112.8 163.1 112.9 163.8 113 164.2 112.4 164.4 111.7 164.4 111 164.2 110.4 163.4 110.3ZM162.9 130.4C162.1 130.3 161.6 130.8 161.5 131.5 161.4 132.5 162 133.1 163 133 163.7 133 164 132.3 164.2 131.7 164.1 131 163.7 130.5 162.9 130.4ZM162.8 143.1C163.6 143.2 163.9 142.6 164.1 141.9 164.1 141.2 163.7 140.6 163 140.4 162 140.2 161.4 140.8 161.4 141.8 161.5 142.5 162.1 143 162.8 143.1ZM169.3 136.7C169.3 136 168.7 135.6 168 135.4 167.2 135.3 166.7 135.8 166.7 136.5 166.6 137.2 167.1 137.8 167.7 138 168.7 138.3 169.2 137.5 169.3 136.7ZM167.9 165.4C167.1 165.5 166.9 166.1 167 166.8 167.1 167.5 167.5 168 168.2 167.9 169 167.8 169.1 167.2 169.2 166.5 169 165.7 168.6 165.3 167.9 165.4ZM163.1 123.1C163.8 123 164.1 122.3 164.2 121.7 164 121 163.6 120.5 162.8 120.5 162 120.5 161.5 121 161.5 121.7 161.5 122.6 162.2 123.2 163.1 123.1ZM163.4 150.6C162.8 150.2 162.1 150.3 161.7 151 161.2 151.9 161.6 152.6 162.5 153 163.2 153.3 163.7 152.9 164.1 152.2 164.5 151.5 164 151 163.4 150.6ZM161.6 101.9C161.6 102.6 162.2 103 162.9 103.1 163.7 103.1 164.1 102.5 164.2 101.9 164.3 101.2 163.8 100.6 163.1 100.5 162.1 100.3 161.5 100.9 161.6 101.9ZM162.9 90.4C162.1 90.4 161.6 90.9 161.6 91.6 161.6 92.6 162.2 93.2 163.2 93.1 163.9 93 164.2 92.4 164.3 91.7 164 90.9 163.6 90.5 162.9 90.4ZM168.1 95.3C167.3 95.4 167 95.9 167 96.6 167 97.3 167.4 97.9 168.1 97.9 168.8 97.9 169.2 97.3 169.2 96.6 169.2 95.9 168.8 95.4 168.1 95.3ZM168.3 105.7C167.6 105.9 167.4 106.3 167.6 106.8 167.7 107 168.1 107.3 168.3 107.3 168.8 107.3 169.3 107.1 169.1 106.5 169 106.1 168.5 105.9 168.3 105.7ZM168.2 125.4C167.5 125.3 167 125.7 167 126.5 167 127.2 167.2 127.8 168 127.9 168.7 128 169.1 127.5 169.2 126.8 169.1 126.1 169 125.4 168.2 125.4ZM167.9 147.8C168.6 147.8 169.1 147.4 169.1 146.7 169.1 146.1 169 145.4 168.2 145.3 167.5 145.2 167 145.6 166.9 146.3 166.9 147.1 167.2 147.6 167.9 147.8ZM168.1 115.3C167.4 115.4 167 115.9 167 116.5 167 117.2 167.4 117.8 168.1 117.8 168.8 117.8 169.2 117.2 169.2 116.6 169.2 116 168.8 115.5 168.1 115.3ZM168.1 77.9C168.8 77.9 169.1 77.3 169.2 76.6 169.1 75.9 168.8 75.4 168.1 75.4 167.4 75.4 167 75.9 167 76.6 167 77.3 167.4 77.8 168.1 77.9ZM167.9 57.8C168.6 57.9 169 57.4 169.1 56.7 169 56.1 168.9 55.4 168.1 55.3 167.4 55.2 166.9 55.6 166.9 56.4 166.9 57.1 167.2 57.7 167.9 57.8ZM168 88.1C168.8 88.1 169.1 87.5 169.3 86.9 169.2 86.2 168.8 85.7 168.1 85.5 167.3 85.3 166.8 85.8 166.7 86.5 166.5 87.4 167.1 88 168 88.1ZM168.1 67.9C168.8 67.9 169.1 67.3 169.2 66.6 169.1 65.9 168.8 65.4 168.1 65.4 167.4 65.4 167 65.9 167 66.6 167 67.3 167.4 67.8 168.1 67.9ZM148 127.9C148.7 127.8 149.1 127.3 149.1 126.6 149.1 125.9 148.7 125.3 148 125.3 147.3 125.3 146.9 125.8 146.9 126.5 146.9 127.2 147.3 127.7 148 127.9ZM147.8 135.3C147 135.4 146.8 136 146.9 136.7 146.9 137.4 147.4 137.8 148.1 137.9 148.9 137.7 149.1 137.1 149 136.5 149 135.7 148.6 135.3 147.8 135.3ZM147.9 117.8C148.6 117.9 149 117.4 149.1 116.7 149 116.1 148.9 115.4 148.1 115.3 147.4 115.2 146.9 115.6 146.9 116.4 146.9 117.1 147.1 117.7 147.9 117.8ZM148.1 75.3C147.3 75.4 147.1 76.1 147.2 76.7 147.3 77.4 147.6 77.9 148.4 77.9 149.1 77.6 149.4 77.1 149.4 76.4 149.3 75.7 148.8 75.2 148.1 75.3ZM147.9 105.4C147.1 105.3 146.6 105.8 146.6 106.5 146.5 107.5 147.1 108.1 148.1 108 148.8 108 149.1 107.3 149.3 106.7 149 106 148.6 105.5 147.9 105.4ZM147.9 145.4C146.9 145.5 146.5 146 146.5 146.7 146.5 147.4 147 147.9 147.7 148 148.8 148.1 149.2 147.4 149.1 146.5 149 145.9 148.5 145.4 147.9 145.4ZM148.3 165.7C148.1 165.7 147.7 166 147.6 166.2 147.4 166.8 147.8 167.1 148.3 167.3 148.6 167.1 149.1 167 149.1 166.8 149.1 166.2 148.8 165.8 148.3 165.7ZM163.1 160.5C162.1 160.3 161.6 161 161.6 161.9 161.6 162.6 162.2 163 162.9 163.1 163.7 163.1 164.1 162.5 164.2 161.9 164.3 161.2 163.8 160.6 163.1 160.5ZM147.8 155.3C147 155.4 146.8 156 146.9 156.7 147 157.4 147.4 157.9 148.1 157.8 148.9 157.7 149 157 149 156.4 149 155.7 148.6 155.3 147.8 155.3ZM158.1 155.3C157.3 155.4 156.9 155.9 157 156.6 157 157.3 157.4 157.9 158.1 157.9 158.8 157.9 159.2 157.3 159.2 156.6 159.2 156 158.8 155.4 158.1 155.3ZM158.1 115.3C157.3 115.4 156.9 115.9 157 116.6 157 117.3 157.4 117.9 158.1 117.9 158.8 117.9 159.2 117.3 159.2 116.6 159.2 116 158.8 115.4 158.1 115.3ZM158.2 165.4C157.5 165.4 157 165.7 157 166.5 157 167.2 157.2 167.8 157.9 167.9 158.6 168 159.1 167.5 159.1 166.8 159.2 166.1 158.9 165.5 158.2 165.4ZM152.9 160.4C152.1 160.5 151.9 161.1 152 161.8 152 162.5 152.5 163 153.2 162.9 154 162.8 154.1 162.1 154.1 161.6 154 160.7 153.6 160.3 152.9 160.4ZM158.3 135.7C158.2 135.6 157.7 135.8 157.6 136 157.3 136.4 157.5 136.9 158 137.1 158.5 137.3 158.9 137.1 159.2 136.6 158.9 136.3 158.7 135.9 158.3 135.7ZM159.1 106.5C159 105.8 158.5 105.4 157.7 105.4 156.9 105.5 156.5 106 156.5 106.7 156.5 107.4 157 107.9 157.7 108 158.8 108.2 159.2 107.4 159.1 106.5ZM157.9 147.8C158.6 147.9 159 147.4 159.2 146.7 159.1 146.1 159 145.4 158.2 145.3 157.5 145.2 157 145.6 157 146.4 156.9 147.1 157.1 147.8 157.9 147.8ZM159.1 126.5C159 125.8 158.6 125.4 157.8 125.4 157 125.5 156.8 126.1 156.9 126.8 156.9 127.5 157.4 128 158.1 127.9 159 127.8 159.2 127.1 159.1 126.5ZM167.5 18C168.6 18.4 169.1 17.6 169.2 16.8 169.3 16.1 168.7 15.7 168.1 15.5 167.2 15.3 166.7 15.8 166.6 16.5 166.5 17.2 166.9 17.8 167.5 18ZM158.3 7.7C159 7.5 159.4 7.1 159.4 6.4 159.2 5.7 158.7 5.3 158 5.4 157.1 5.5 156.6 6.1 156.8 7 157 7.7 157.6 7.9 158.3 7.7ZM157.6 98.3C158.6 98.4 159.2 97.7 159.2 96.9 159.2 96.1 158.8 95.3 157.7 95.4 156.8 95.5 156.3 96.3 156.3 97.1 156.2 97.9 156.9 98.2 157.6 98.3ZM158.2 18.3C158.9 18.4 159.5 18.2 159.5 17 159.2 16.4 159 15.3 157.7 15.4 157 15.5 156.5 16.1 156.6 16.8 156.7 17.6 157.3 18.2 158.2 18.3ZM152.7 150.4C151.9 150.6 151.5 151.2 151.6 151.8 151.8 152.8 152.6 153.4 153.7 153.3 154.2 153.2 154.6 152.9 154.5 152.3 154.3 151.3 153.9 150.4 152.7 150.4ZM158.3 67.2C158.8 67.2 159.3 67 159.1 66.4 159 66.1 158.5 65.8 158.3 65.6 157.6 65.8 157.4 66.2 157.6 66.7 157.7 67 158 67.2 158.3 67.2ZM153.1 80.4C152.4 80.3 151.9 80.7 151.9 81.5 151.9 82.1 152.1 82.8 152.8 82.9 153.5 83 153.9 82.5 154 81.8 154 81.1 153.9 80.4 153.1 80.4ZM156.9 36.6C156.9 37.3 157.3 37.9 158 37.9 158.7 37.9 159 37.3 159.1 36.6 159 35.9 158.7 35.3 157.9 35.3 157.3 35.3 156.9 35.9 156.9 36.6ZM159.1 26.8C159.2 26.2 158.8 25.9 158.4 25.7 158.2 25.6 157.8 25.8 157.7 26.1 157.4 26.5 157.6 27 158.1 27.2 158.5 27.3 158.9 27.2 159.1 26.8ZM158 55.3C157.3 55.3 156.9 55.9 156.9 56.6 156.9 57.3 157.3 57.9 158 57.9 158.7 57.9 159 57.3 159.1 56.6 159 55.9 158.7 55.3 158 55.3ZM153.3 120.2C152.6 120.2 152.2 120.8 152.2 121.5 152.2 122.2 152.6 122.9 153.3 122.9 153.9 122.9 154.3 122.2 154.5 121.6 154.3 120.9 154 120.2 153.3 120.2ZM153.4 100.3C152.7 100.2 152.2 100.6 152.2 101.4 152.2 102.1 152.4 102.7 153.1 102.9 153.8 102.8 154.3 102.4 154.3 101.7 154.4 101 154.2 100.4 153.4 100.3ZM153.2 3C154 3 154.4 2.3 154.3 1.6 154.2 0.9 153.6 0.5 152.9 0.5 152.1 0.6 151.8 1.2 151.8 1.9 151.9 2.6 152.5 3 153.2 3ZM153 13C153.7 13.1 154.1 12.5 154.3 11.9 154.2 11.2 154 10.7 153.3 10.5 152.6 10.3 152.1 10.7 151.9 11.3 151.5 12.3 152.2 12.9 153 13ZM152.8 90.4C152.1 90.5 151.9 91.1 152 91.8 152 92.5 152.5 93 153.2 92.9 154 92.8 154.2 92.2 154.1 91.5 154 90.8 153.6 90.3 152.8 90.4ZM151.6 111.4C151.4 112.4 152 113 152.9 113 153.7 113 154 112.4 154.2 111.8 154.1 111.1 153.7 110.6 153 110.4 152.2 110.2 151.7 110.7 151.6 111.4ZM152.9 142.8C153.6 142.9 154 142.4 154.1 141.7 154 141.1 153.9 140.4 153.1 140.3 152.4 140.2 151.9 140.6 151.9 141.4 151.9 142.1 152.1 142.8 152.9 142.8ZM153.2 130.5C152.3 130.2 151.6 130.8 151.6 131.7 151.6 132.6 152.3 133.1 153.1 133.3 153.8 133.4 154.4 133.3 154.5 132.4 154.5 131.5 154 130.7 153.2 130.5ZM157.9 85.4C157.1 85.5 156.9 86.1 157 86.8 157 87.5 157.5 88 158.2 87.9 159 87.8 159.2 87.2 159.1 86.5 159.1 85.8 158.6 85.4 157.9 85.4ZM167.8 38C168.9 38.1 169.3 37.4 169.2 36.5 169.1 35.8 168.5 35.4 167.8 35.4 167 35.5 166.6 36 166.6 36.7 166.6 37.4 167.1 38 167.8 38ZM163.4 2.9C163.9 2.9 164.3 2.1 164.6 1.8 164.5 0.9 164.2 0.3 163.5 0.2 162.7 0.1 162.4 0.7 162.4 1.4 162.5 2.1 162.7 2.9 163.4 2.9ZM163.2 22.8C164 22.7 164.1 22.1 164.2 21.4 164.1 20.7 163.7 20.3 162.9 20.3 162.1 20.4 161.9 21 162 21.7 162 22.5 162.5 22.9 163.2 22.8ZM163.5 12.2C163.9 12.2 164.5 11.8 164.5 11.5 164.7 10.7 164.1 10.4 163.3 10.2 163 10.4 162.5 10.6 162.4 11 162.2 11.8 162.8 12.2 163.5 12.2ZM167.9 48.1C168.8 48.1 169.5 47.6 169.6 46.7 169.6 45.8 169 45.3 167.8 45.2 167.1 45.2 166.4 45.6 166.4 46.6 166.4 47.5 166.9 48.1 167.9 48.1ZM168.3 7.8C168.6 7.8 169.1 7.2 169.2 6.8 169.4 6.1 169.1 5.5 168.3 5.3 167.5 5.3 167.1 5.8 167.1 6.5 167.2 7.2 167.6 7.9 168.3 7.8ZM168.5 25.8C168 25.6 167.6 25.9 167.5 26.4 167.4 26.9 167.8 27.2 168.3 27.3 168.8 27.2 169.3 27.1 169 26.5 169 26.1 168.7 25.8 168.5 25.8ZM152.9 20.4C152.1 20.5 151.9 21.1 152 21.8 152 22.5 152.5 22.9 153.3 22.9 154 22.7 154.2 22.1 154.2 21.5 154 20.8 153.6 20.3 152.9 20.4ZM162.8 70.5C162 70.5 161.7 71 161.5 71.7 161.6 72.4 162 72.9 162.7 73.1 163.5 73.3 164 72.8 164.1 72.1 164.4 71.1 163.8 70.5 162.8 70.5ZM162.7 83.3C163.7 83.3 164.2 82.6 164.2 81.7 164.1 80.8 163.5 80.1 162.5 80.4 161.7 80.6 161.1 81.3 161.3 82.3 161.4 83.1 162 83.3 162.7 83.3ZM162.9 32.9C163.7 32.9 164.1 32.5 164.2 31.8 164.3 31.2 164.1 30.5 163.3 30.4 162.6 30.3 162.1 30.7 162 31.4 161.9 32.1 162.1 32.7 162.9 32.9ZM157.9 45.4C157.1 45.5 156.6 46 156.6 46.7 156.7 47.8 157.5 48.3 158.6 48.3 159.4 48.3 159.7 47.6 159.4 47 159.2 46.2 158.8 45.4 157.9 45.4ZM157.9 75.4C157.1 75.5 156.9 76.1 157 76.8 157 77.5 157.5 78 158.2 77.9 159 77.8 159.1 77.2 159.2 76.5 159 75.8 158.6 75.3 157.9 75.4ZM168.4 155.3C167.7 155.2 167.2 155.6 167.2 156.4 167.2 157.1 167.4 157.7 168.1 158 168.8 157.9 169.3 157.4 169.4 156.8 169.5 156 169.2 155.4 168.4 155.3ZM163 63.2C164 63.4 164.6 62.7 164.6 61.9 164.7 60.9 164.1 60.1 163 59.8 162 59.7 161.4 60.3 161.3 61.2 161.2 62.3 161.9 63 163 63.2ZM162.8 43.1C163.6 43.2 163.9 42.6 164.1 41.9 164.1 41.2 163.7 40.6 163 40.4 162 40.2 161.4 40.8 161.4 41.8 161.5 42.5 162.1 43 162.8 43.1ZM161.9 51.4C161.9 52.1 162.1 52.7 162.9 52.8 163.6 52.9 164 52.4 164.2 51.7 164.1 51 164 50.4 163.2 50.3 162.5 50.3 161.9 50.7 161.9 51.4Z"/>
</svg>
